<?xml version="1.0" encoding="utf-8" standalone="no"?>
<!DOCTYPE svg PUBLIC "-//W3C//DTD SVG 1.1//EN"
  "http://www.w3.org/Graphics/SVG/1.1/DTD/svg11.dtd">
<svg xmlns:xlink="http://www.w3.org/1999/xlink" width="937.98pt" height="316.656pt" viewBox="0 0 937.98 316.656" xmlns="http://www.w3.org/2000/svg" version="1.1">
 <metadata>
  <rdf:RDF xmlns:dc="http://purl.org/dc/elements/1.1/" xmlns:cc="http://creativecommons.org/ns#" xmlns:rdf="http://www.w3.org/1999/02/22-rdf-syntax-ns#">
   <cc:Work>
    <dc:type rdf:resource="http://purl.org/dc/dcmitype/StillImage"/>
    <dc:date>2026-08-19T10:41:04.849236</dc:date>
    <dc:format>image/svg+xml</dc:format>
    <dc:creator>
     <cc:Agent>
      <dc:title>Matplotlib v3.11.0, https://matplotlib.org/</dc:title>
     </cc:Agent>
    </dc:creator>
   </cc:Work>
  </rdf:RDF>
 </metadata>
 <defs>
  <style type="text/css">*{stroke-linejoin: round; stroke-linecap: butt}</style>
 </defs>
 <g id="figure_1">
  <g id="patch_1">
   <path d="M 0 316.656
L 937.98 316.656
L 937.98 0
L 0 0
z
" style="fill: #ffffff"/>
  </g>
  <g id="axes_1">
   <g id="patch_2">
    <path d="M 805.9662 218.801952
L 910.0053 218.801952
Q 926.5779 218.801952 926.5779 213.413184
L 926.5779 103.242816
Q 926.5779 97.854048 910.0053 97.854048
L 805.9662 97.854048
Q 789.3936 97.854048 789.3936 103.242816
L 789.3936 213.413184
Q 789.3936 218.801952 805.9662 218.801952
z
" clip-path="url(#p0ad3cd7344)" style="fill: #ddebf7; stroke: #17365d; stroke-width: 1.5; stroke-linejoin: miter"/>
   </g>
   <g id="patch_3">
    <path d="M 794.762477 158.328
Q 793.154302 158.328 793.111375 158.328
" clip-path="url(#p0ad3cd7344)" style="fill: none; stroke: #7f8c8d; stroke-width: 1.4; stroke-linecap: round"/>
    <path d="M 799.111375 161.328
L 793.111375 158.328
L 799.111375 155.328
z
" clip-path="url(#p0ad3cd7344)" style="fill: #7f8c8d; stroke: #7f8c8d; stroke-width: 1.4; stroke-linecap: round"/>
   </g>
   <g id="patch_4">
    <path d="M 676.30095 218.801952
L 780.34005 218.801952
Q 796.91265 218.801952 796.91265 213.413184
L 796.91265 103.242816
Q 796.91265 97.854048 780.34005 97.854048
L 676.30095 97.854048
Q 659.72835 97.854048 659.72835 103.242816
L 659.72835 213.413184
Q 659.72835 218.801952 676.30095 218.801952
z
" clip-path="url(#p0ad3cd7344)" style="fill: #e2f0d9; stroke: #17365d; stroke-width: 1.5; stroke-linejoin: miter"/>
   </g>
   <g id="patch_5">
    <path d="M 665.097227 158.328
Q 663.489052 158.328 663.446125 158.328
" clip-path="url(#p0ad3cd7344)" style="fill: none; stroke: #7f8c8d; stroke-width: 1.4; stroke-linecap: round"/>
    <path d="M 669.446125 161.328
L 663.446125 158.328
L 669.446125 155.328
z
" clip-path="url(#p0ad3cd7344)" style="fill: #7f8c8d; stroke: #7f8c8d; stroke-width: 1.4; stroke-linecap: round"/>
   </g>
   <g id="patch_6">
    <path d="M 546.6357 218.801952
L 650.6748 218.801952
Q 667.2474 218.801952 667.2474 213.413184
L 667.2474 103.242816
Q 667.2474 97.854048 650.6748 97.854048
L 546.6357 97.854048
Q 530.0631 97.854048 530.0631 103.242816
L 530.0631 213.413184
Q 530.0631 218.801952 546.6357 218.801952
z
" clip-path="url(#p0ad3cd7344)" style="fill: #fff2cc; stroke: #17365d; stroke-width: 1.5; stroke-linejoin: miter"/>
   </g>
   <g id="patch_7">
    <path d="M 535.431977 158.328
Q 533.823802 158.328 533.780875 158.328
" clip-path="url(#p0ad3cd7344)" style="fill: none; stroke: #7f8c8d; stroke-width: 1.4; stroke-linecap: round"/>
    <path d="M 539.780875 161.328
L 533.780875 158.328
L 539.780875 155.328
z
" clip-path="url(#p0ad3cd7344)" style="fill: #7f8c8d; stroke: #7f8c8d; stroke-width: 1.4; stroke-linecap: round"/>
   </g>
   <g id="patch_8">
    <path d="M 416.97045 218.801952
L 521.00955 218.801952
Q 537.58215 218.801952 537.58215 213.413184
L 537.58215 103.242816
Q 537.58215 97.854048 521.00955 97.854048
L 416.97045 97.854048
Q 400.39785 97.854048 400.39785 103.242816
L 400.39785 213.413184
Q 400.39785 218.801952 416.97045 218.801952
z
" clip-path="url(#p0ad3cd7344)" style="fill: #fce4d6; stroke: #17365d; stroke-width: 1.5; stroke-linejoin: miter"/>
   </g>
   <g id="patch_9">
    <path d="M 405.766727 158.328
Q 404.158552 158.328 404.115625 158.328
" clip-path="url(#p0ad3cd7344)" style="fill: none; stroke: #7f8c8d; stroke-width: 1.4; stroke-linecap: round"/>
    <path d="M 410.115625 161.328
L 404.115625 158.328
L 410.115625 155.328
z
" clip-path="url(#p0ad3cd7344)" style="fill: #7f8c8d; stroke: #7f8c8d; stroke-width: 1.4; stroke-linecap: round"/>
   </g>
   <g id="patch_10">
    <path d="M 287.3052 218.801952
L 391.3443 218.801952
Q 407.9169 218.801952 407.9169 213.413184
L 407.9169 103.242816
Q 407.9169 97.854048 391.3443 97.854048
L 287.3052 97.854048
Q 270.7326 97.854048 270.7326 103.242816
L 270.7326 213.413184
Q 270.7326 218.801952 287.3052 218.801952
z
" clip-path="url(#p0ad3cd7344)" style="fill: #e4dfec; stroke: #17365d; stroke-width: 1.5; stroke-linejoin: miter"/>
   </g>
   <g id="patch_11">
    <path d="M 276.101477 158.328
Q 274.493302 158.328 274.450375 158.328
" clip-path="url(#p0ad3cd7344)" style="fill: none; stroke: #7f8c8d; stroke-width: 1.4; stroke-linecap: round"/>
    <path d="M 280.450375 161.328
L 274.450375 158.328
L 280.450375 155.328
z
" clip-path="url(#p0ad3cd7344)" style="fill: #7f8c8d; stroke: #7f8c8d; stroke-width: 1.4; stroke-linecap: round"/>
   </g>
   <g id="patch_12">
    <path d="M 157.63995 218.801952
L 261.67905 218.801952
Q 278.25165 218.801952 278.25165 213.413184
L 278.25165 103.242816
Q 278.25165 97.854048 261.67905 97.854048
L 157.63995 97.854048
Q 141.06735 97.854048 141.06735 103.242816
L 141.06735 213.413184
Q 141.06735 218.801952 157.63995 218.801952
z
" clip-path="url(#p0ad3cd7344)" style="fill: #d9ead3; stroke: #17365d; stroke-width: 1.5; stroke-linejoin: miter"/>
   </g>
   <g id="patch_13">
    <path d="M 146.436227 158.328
Q 144.828052 158.328 144.785125 158.328
" clip-path="url(#p0ad3cd7344)" style="fill: none; stroke: #7f8c8d; stroke-width: 1.4; stroke-linecap: round"/>
    <path d="M 150.785125 161.328
L 144.785125 158.328
L 150.785125 155.328
z
" clip-path="url(#p0ad3cd7344)" style="fill: #7f8c8d; stroke: #7f8c8d; stroke-width: 1.4; stroke-linecap: round"/>
   </g>
   <g id="patch_14">
    <path d="M 27.9747 218.801952
L 132.0138 218.801952
Q 148.5864 218.801952 148.5864 213.413184
L 148.5864 103.242816
Q 148.5864 97.854048 132.0138 97.854048
L 27.9747 97.854048
Q 11.4021 97.854048 11.4021 103.242816
L 11.4021 213.413184
Q 11.4021 218.801952 27.9747 218.801952
z
" clip-path="url(#p0ad3cd7344)" style="fill: #ddebf7; stroke: #17365d; stroke-width: 1.5; stroke-linejoin: miter"/>
   </g>
   <g id="text_1">
    <!-- داده مصنوعی -->
    <g transform="translate(832.736727 138.758711) scale(0.125 -0.125)">
     <defs>
      <path id="BNazanin-ca" d="M 4075 3
L 3163 3
Q 2994 3 2838 -50
Q 2622 -122 2622 -253
Q 2622 -284 3198 -412
Q 3775 -541 3775 -666
Q 3775 -1138 3503 -1369
Q 3044 -1763 1884 -1763
Q 484 -1763 484 -728
Q 484 -494 584 -208
Q 684 78 828 266
Q 884 341 931 344
Q 978 347 978 294
Q 978 247 941 175
Q 759 -169 759 -538
Q 759 -947 1147 -1144
Q 1444 -1294 1900 -1294
Q 2384 -1294 2788 -1244
Q 3513 -1153 3513 -934
Q 3513 -844 3197 -791
Q 2694 -706 2616 -684
Q 2300 -597 2300 -416
Q 2300 -272 2453 -56
Q 2581 122 2722 238
Q 3003 466 3522 466
L 4075 466
L 4075 3
z
" transform="scale(0.015625)"/>
      <path id="BNazanin-9f" d="M 2191 781
L 2066 409
L 975 122
Q 525 3 134 3
L -81 3
L -81 466
L 253 466
Q 347 466 556 497
Q 206 772 206 1041
Q 206 1278 497 1644
Q 834 2066 1213 2066
Q 1603 2066 1859 1691
Q 1944 1566 1944 1531
Q 1944 1506 1903 1506
Q 1853 1506 1722 1541
Q 1422 1619 1216 1619
Q 1041 1619 813 1509
Q 550 1384 550 1228
Q 550 1100 756 900
Q 1009 656 1316 656
Q 1413 656 2144 856
Q 2200 872 2206 872
Q 2209 863 2216 853
Q 2209 841 2191 781
z
" transform="scale(0.015625)"/>
      <path id="BNazanin-c2" d="M 2484 3
L 2050 3
Q 1994 -813 1422 -1388
Q 1241 -1569 1194 -1569
Q 866 -1569 416 -1500
Q 269 -1478 269 -1453
Q 269 -1428 425 -1381
Q 919 -1238 1328 -881
Q 1503 -728 1647 -528
Q 1828 -275 1828 -103
L 1828 3
L 1328 3
Q 753 3 753 469
Q 753 766 925 1106
Q 1122 1494 1375 1494
Q 1684 1494 1872 1113
Q 2009 834 2044 466
L 2484 466
L 2484 3
z
M 1769 472
Q 1769 653 1641 838
Q 1497 1047 1309 1047
Q 1188 1047 1091 948
Q 994 850 994 728
Q 994 456 1459 456
Q 1581 456 1769 472
z
" transform="scale(0.015625)"/>
      <path id="BNazanin-c0" d="M 2050 3
L 1744 3
Q 1191 3 1003 366
Q 797 3 178 3
L -81 3
L -81 466
L 275 466
Q 859 466 913 919
Q 934 1100 1003 1100
Q 1072 1100 1091 913
Q 1131 466 1697 466
L 2050 466
L 2050 3
z
M 1256 2069
L 931 1744
L 603 2069
L 928 2394
L 1256 2069
z
" transform="scale(0.015625)"/>
      <path id="BNazanin-90" d="M 3906 3
L 3591 3
Q 3178 3 2716 138
Q 2303 6 1666 6
Q 1256 6 1084 50
Q 794 125 672 369
Q 453 3 84 3
L -81 3
L -81 466
L 81 466
Q 534 466 616 925
Q 634 1038 691 1038
Q 747 1038 759 925
Q 806 503 1144 484
Q 2256 1681 2906 1681
Q 3184 1681 3372 1513
Q 3569 1334 3569 1063
Q 3569 694 3303 431
Q 3375 431 3520 448
Q 3666 466 3738 466
L 3906 466
L 3906 3
z
M 3278 831
Q 3278 1009 3078 1134
Q 2903 1244 2716 1244
Q 2153 1244 1422 484
Q 1591 475 1763 475
Q 2159 475 2597 538
Q 3278 634 3278 831
z
" transform="scale(0.015625)"/>
      <path id="BNazanin-bb" d="M 2066 797
Q 2091 500 1997 297
Q 1853 -13 1678 -13
Q 1359 -13 772 397
Q 591 181 519 125
Q 363 3 134 3
L -81 3
L -81 466
L 203 466
Q 472 466 675 741
Q 775 884 1034 1250
Q 1231 1525 1438 1525
Q 1728 1525 1913 1231
Q 2047 1016 2066 797
z
M 1828 503
Q 1828 678 1697 884
Q 1550 1116 1375 1116
Q 1197 1116 956 750
Q 1056 641 1322 520
Q 1588 400 1734 400
Q 1828 400 1828 503
z
" transform="scale(0.015625)"/>
      <path id="BNazanin-3" transform="scale(0.015625)"/>
      <path id="BNazanin-c3" d="M 2000 844
Q 2000 434 1747 206
Q 1503 -9 1091 -9
Q 838 -9 666 144
Q 484 303 484 553
Q 484 831 722 1244
Q 928 1600 1178 1850
Q 2000 1422 2000 844
z
M 1772 681
Q 1772 847 1506 1097
Q 1269 1319 1084 1388
Q 772 991 772 753
Q 772 613 919 525
Q 1044 450 1194 450
Q 1453 450 1631 547
Q 1772 622 1772 681
z
" transform="scale(0.015625)"/>
      <path id="BNazanin-7b" d="M 2438 838
Q 2438 3 1331 3
Q 919 3 728 116
Q 481 259 481 638
Q 481 816 578 1000
Q 622 1084 659 1084
Q 706 1084 694 981
Q 684 906 684 856
Q 684 606 909 519
Q 1047 466 1353 466
Q 2228 466 2228 738
Q 2228 1166 1206 1906
L 1325 2313
Q 1344 2372 1359 2372
Q 1378 2372 1438 2325
Q 2438 1522 2438 838
z
" transform="scale(0.015625)"/>
      <path id="BNazanin-59" d="M 934 497
Q 934 253 834 50
Q 775 -72 753 -72
Q 728 -72 728 81
Q 728 775 484 3469
L 816 3778
Q 859 3819 875 3822
Q 891 3822 894 3753
Q 934 2963 934 497
z
" transform="scale(0.015625)"/>
     </defs>
     <use xlink:href="#BNazanin-ca"/>
     <use xlink:href="#BNazanin-9f" transform="translate(62.359375 0)"/>
     <use xlink:href="#BNazanin-c2" transform="translate(96.828125 0)"/>
     <use xlink:href="#BNazanin-c0" transform="translate(134.328125 0)"/>
     <use xlink:href="#BNazanin-90" transform="translate(165.09375 0)"/>
     <use xlink:href="#BNazanin-bb" transform="translate(224.859375 0)"/>
     <use xlink:href="#BNazanin-3" transform="translate(257.1875 0)"/>
     <use xlink:href="#BNazanin-c3" transform="translate(281.609375 0)"/>
     <use xlink:href="#BNazanin-7b" transform="translate(312.90625 0)"/>
     <use xlink:href="#BNazanin-59" transform="translate(351.09375 0)"/>
     <use xlink:href="#BNazanin-7b" transform="translate(365.796875 0)"/>
    </g>
   </g>
   <g id="text_2">
    <!-- 100 هویت -->
    <g transform="translate(839.39575 171.509484) scale(0.11 -0.11)">
     <defs>
      <path id="BNazanin-64" d="M 4803 3
L 4634 3
Q 4353 3 4175 131
Q 3972 275 3969 544
Q 3303 -72 1916 -72
Q 484 -72 484 797
Q 484 1091 706 1406
Q 747 1466 794 1466
Q 838 1466 838 1409
Q 838 1384 822 1347
Q 734 1147 734 988
Q 734 391 2034 391
Q 3550 391 4047 1050
Q 4147 1181 4200 1181
Q 4238 1181 4238 1106
Q 4238 1053 4216 947
Q 4194 841 4194 788
Q 4194 466 4634 466
L 4803 466
L 4803 3
z
M 3003 2325
L 2694 2019
L 2384 2328
L 2691 2638
L 3003 2325
z
M 2319 2325
L 2009 2019
L 1697 2328
L 2006 2638
L 2319 2325
z
" transform="scale(0.015625)"/>
      <path id="BNazanin-cb" d="M 1038 797
Q 1038 3 247 3
L -81 3
L -81 466
L 191 466
Q 788 466 788 681
Q 788 831 516 1178
L 678 1572
Q 703 1631 719 1631
Q 734 1631 784 1559
Q 1038 1188 1038 797
z
M 1406 -878
L 1097 -1188
L 788 -875
L 1097 -566
L 1406 -878
z
M 722 -878
L 413 -1188
L 103 -875
L 409 -566
L 722 -878
z
" transform="scale(0.015625)"/>
      <path id="BNazanin-c5" d="M 2522 819
Q 2522 597 2372 350
Q 2194 59 1953 59
Q 1766 59 1097 334
Q 575 3 138 3
L -81 3
L -81 466
L 153 466
Q 419 466 628 522
Q 381 697 381 997
Q 381 1384 903 1784
L 638 1916
Q 753 2031 981 2269
Q 1544 1997 1934 1691
Q 2522 1228 2522 819
z
M 2309 663
Q 2309 825 2063 1063
Q 1863 1256 1697 1341
Q 1697 866 1422 634
Q 1916 472 2066 472
Q 2309 472 2309 663
z
M 1469 1134
Q 1469 1288 1400 1416
Q 1319 1569 1178 1569
Q 1022 1569 844 1434
Q 656 1294 656 1144
Q 656 881 1091 753
Q 1228 784 1341 888
Q 1469 1003 1469 1134
z
" transform="scale(0.015625)"/>
      <path id="BNazanin-f" d="M 1988 775
Q 1988 -103 1794 -103
Q 1700 -103 1681 219
Q 1681 419 1681 619
Q 1666 1022 1531 1525
Q 1291 2425 859 3084
L 1178 3584
Q 1491 3125 1722 2388
Q 1988 1541 1988 775
z
" transform="scale(0.015625)"/>
      <path id="BNazanin-e" d="M 1975 1534
L 1428 988
L 888 1531
L 1431 2075
L 1975 1534
z
" transform="scale(0.015625)"/>
     </defs>
     <use xlink:href="#BNazanin-64"/>
     <use xlink:href="#BNazanin-cb" transform="translate(73.78125 0)"/>
     <use xlink:href="#BNazanin-c2" transform="translate(96 0)"/>
     <use xlink:href="#BNazanin-c5" transform="translate(133.5 0)"/>
     <use xlink:href="#BNazanin-3" transform="translate(172.953125 0)"/>
     <use xlink:href="#BNazanin-f" transform="translate(197.375 0)"/>
     <use xlink:href="#BNazanin-e" transform="translate(244.25 0)"/>
     <use xlink:href="#BNazanin-e" transform="translate(291.125 0)"/>
    </g>
    <!-- 500 واقعیت -->
    <g transform="translate(837.249891 193.720729) scale(0.11 -0.11)">
     <defs>
      <path id="BNazanin-cc" d="M 2050 3
L 1744 3
Q 1191 3 1003 366
Q 797 3 178 3
L -81 3
L -81 466
L 275 466
Q 859 466 913 919
Q 934 1100 1003 1100
Q 1072 1100 1091 913
Q 1131 466 1697 466
L 2050 466
L 2050 3
z
M 1419 -878
L 1109 -1188
L 797 -875
L 1106 -566
L 1419 -878
z
M 731 -878
L 425 -1188
L 113 -875
L 422 -566
L 731 -878
z
" transform="scale(0.015625)"/>
      <path id="BNazanin-a0" d="M 2328 3
L 2078 3
Q 1481 3 1172 397
Q 813 3 244 3
L -81 3
L -81 466
L 313 466
Q 716 466 909 628
Q 872 734 763 863
Q 644 1003 550 1028
Q 422 1063 422 1113
Q 422 1141 450 1206
Q 609 1581 1134 1581
Q 1800 1581 1800 1166
Q 1800 981 1434 663
Q 1522 572 1725 513
Q 1888 466 2009 466
L 2328 466
L 2328 3
z
" transform="scale(0.015625)"/>
      <path id="BNazanin-ab" d="M 1631 1134
Q 1631 578 1513 406
Q 1234 3 481 3
L -81 3
L -81 466
L 316 466
Q 1344 466 1431 800
Q 1469 941 1406 1034
Q 1175 981 875 981
Q 313 981 313 1447
Q 313 1772 466 2078
Q 650 2450 947 2450
Q 1206 2450 1406 2113
Q 1631 1734 1631 1134
z
M 1328 1481
Q 1328 1672 1195 1828
Q 1063 1984 875 1984
Q 744 1984 653 1900
Q 563 1816 563 1684
Q 563 1428 947 1428
Q 1113 1428 1328 1481
z
M 1534 3300
L 1225 2991
L 913 3303
L 1222 3613
L 1534 3300
z
M 847 3300
L 541 2991
L 228 3303
L 538 3613
L 847 3300
z
" transform="scale(0.015625)"/>
      <path id="BNazanin-c1" d="M 2056 163
Q 2056 -731 1441 -1369
Q 1247 -1569 1194 -1569
Q 853 -1569 416 -1500
Q 263 -1475 263 -1453
Q 263 -1428 425 -1381
Q 909 -1241 1328 -881
Q 1503 -731 1647 -528
Q 1828 -275 1828 -103
L 1828 28
L 1306 9
Q 753 -9 753 469
Q 753 766 925 1106
Q 1122 1494 1375 1494
Q 1750 1494 1931 978
Q 2056 622 2056 163
z
M 1769 494
Q 1769 688 1638 859
Q 1497 1047 1309 1047
Q 1184 1047 1092 953
Q 1000 859 1000 734
Q 1000 459 1394 459
Q 1541 459 1769 494
z
" transform="scale(0.015625)"/>
      <path id="BNazanin-13" d="M 2663 781
Q 2663 488 2497 228
Q 2303 -75 2013 -75
Q 1675 -75 1497 250
Q 1300 -122 913 -122
Q 628 -122 463 116
Q 313 325 313 622
Q 313 1419 1184 2950
L 1066 3094
L 1313 3606
Q 1797 3053 2175 2416
Q 2663 1594 2663 1097
L 2663 781
z
M 2422 813
Q 2422 1206 1928 1975
Q 1619 2456 1322 2806
Q 1106 2409 891 1872
Q 619 1194 619 903
Q 619 713 700 581
Q 794 425 972 425
Q 1381 425 1425 813
Q 1438 931 1516 931
Q 1591 931 1613 816
Q 1688 441 2053 441
Q 2216 441 2319 545
Q 2422 650 2422 813
z
" transform="scale(0.015625)"/>
     </defs>
     <use xlink:href="#BNazanin-64"/>
     <use xlink:href="#BNazanin-cc" transform="translate(73.78125 0)"/>
     <use xlink:href="#BNazanin-a0" transform="translate(104.546875 0)"/>
     <use xlink:href="#BNazanin-ab" transform="translate(139.65625 0)"/>
     <use xlink:href="#BNazanin-59" transform="translate(165.09375 0)"/>
     <use xlink:href="#BNazanin-c1" transform="translate(179.796875 0)"/>
     <use xlink:href="#BNazanin-3" transform="translate(211.96875 0)"/>
     <use xlink:href="#BNazanin-13" transform="translate(236.390625 0)"/>
     <use xlink:href="#BNazanin-e" transform="translate(283.265625 0)"/>
     <use xlink:href="#BNazanin-e" transform="translate(330.140625 0)"/>
    </g>
   </g>
   <g id="text_3">
    <g id="patch_15">
     <path d="M 904.4811 117.658734
C 906.001778 117.658734 907.460378 117.054562 908.53566 115.97928
C 909.610942 114.903998 910.215114 113.445398 910.215114 111.92472
C 910.215114 110.404042 909.610942 108.945442 908.53566 107.87016
C 907.460378 106.794878 906.001778 106.190706 904.4811 106.190706
C 902.960422 106.190706 901.501822 106.794878 900.42654 107.87016
C 899.351258 108.945442 898.747086 110.404042 898.747086 111.92472
C 898.747086 113.445398 899.351258 114.903998 900.42654 115.97928
C 901.501822 117.054562 902.960422 117.658734 904.4811 117.658734
z
" style="fill: #17365d"/>
    </g>
    <!-- 1 -->
    <g style="fill: #ffffff" transform="translate(902.3561 113.954261) scale(0.085 -0.085)">
     <defs>
      <path id="TimesNewRomanPSMT-14" d="M 750 3822
L 1781 4325
L 1884 4325
L 1884 747
Q 1884 391 1914 303
Q 1944 216 2037 169
Q 2131 122 2419 116
L 2419 0
L 825 0
L 825 116
Q 1125 122 1212 167
Q 1300 213 1334 289
Q 1369 366 1369 747
L 1369 3034
Q 1369 3497 1338 3628
Q 1316 3728 1258 3775
Q 1200 3822 1119 3822
Q 1003 3822 797 3725
L 750 3822
z
" transform="scale(0.015625)"/>
     </defs>
     <use xlink:href="#TimesNewRomanPSMT-14"/>
    </g>
   </g>
   <g id="text_4">
    <!-- تفکیک هدف -->
    <g transform="translate(703.8205 138.758711) scale(0.125 -0.125)">
     <defs>
      <path id="BNazanin-a5" d="M 4303 1134
L 4303 1063
Q 4303 641 4172 441
Q 3850 -53 1950 -53
Q 491 -53 484 766
Q 481 1163 703 1491
Q 750 1559 791 1559
Q 822 1559 825 1500
Q 816 1469 753 1234
Q 728 1138 728 1028
Q 728 616 1291 478
Q 1572 409 2172 409
Q 3897 409 4084 759
Q 4113 813 4116 906
Q 4119 984 4100 1034
Q 3788 981 3547 981
Q 2988 981 2984 1447
Q 2981 1772 3134 2078
Q 3322 2450 3616 2450
Q 3881 2450 4078 2116
Q 4303 1734 4303 1134
z
M 3997 1481
Q 3997 1672 3865 1828
Q 3734 1984 3547 1984
Q 3238 1984 3231 1684
Q 3228 1434 3616 1428
Q 3775 1425 3997 1481
z
M 3809 3328
L 3484 3003
L 3156 3331
L 3481 3656
L 3809 3328
z
" transform="scale(0.015625)"/>
      <path id="BNazanin-7c" d="M 3116 3
L 2938 3
Q 2713 3 2556 147
Q 2459 238 2322 466
Q 2178 209 1988 106
Q 1756 -22 1325 -22
Q 484 -22 484 581
Q 484 784 609 1000
Q 650 1072 691 1072
Q 728 1072 728 1009
Q 728 975 718 908
Q 709 841 709 806
Q 709 447 1319 447
Q 2178 447 2178 781
Q 2178 963 1681 2084
L 1859 2394
Q 1894 2453 1906 2456
Q 1925 2444 1953 2378
Q 2153 1906 2500 953
Q 2678 466 3003 466
L 3116 466
L 3116 3
z
" transform="scale(0.015625)"/>
      <path id="BNazanin-ae" d="M 5503 3
L 5213 3
Q 4909 3 4581 341
Q 4406 519 4113 953
Q 4122 541 3941 334
Q 3638 -13 2759 -13
L 1950 -13
Q 484 -13 484 819
Q 484 1119 678 1434
Q 728 1516 775 1516
Q 813 1516 813 1466
Q 813 1434 797 1397
Q 709 1181 709 1050
Q 709 831 925 675
Q 1234 450 1897 450
L 2681 450
Q 3353 450 3606 534
Q 3903 634 3903 913
Q 3903 1153 3625 1494
Q 3463 1694 3103 2031
Q 2825 2294 2825 2322
Q 2825 2719 2956 2900
Q 2984 2941 3788 3234
Q 4625 3541 5188 3709
Q 5188 3622 5072 3263
Q 4413 3059 3113 2575
Q 3691 2047 4478 1022
Q 4763 650 4944 547
Q 5084 466 5338 466
L 5503 466
L 5503 3
z
" transform="scale(0.015625)"/>
      <path id="BNazanin-b0" d="M 2831 3
L 2544 3
Q 2234 3 1909 341
Q 1750 506 1444 953
Q 1475 3 372 3
L -81 3
L -81 466
L 428 466
Q 1234 466 1234 913
Q 1234 1150 953 1494
Q 775 1709 434 2028
Q 153 2291 153 2319
Q 153 2719 288 2900
Q 316 2941 1072 3219
Q 1866 3513 2506 3706
Q 2506 3619 2403 3263
Q 1644 3013 447 2559
Q 1003 2069 1809 1022
Q 2094 653 2272 547
Q 2409 466 2669 466
L 2831 466
L 2831 3
z
" transform="scale(0.015625)"/>
      <path id="BNazanin-a8" d="M 2247 3
L 2041 3
Q 1847 3 1578 75
Q 1281 153 1150 253
Q 1016 163 791 94
Q 500 3 209 3
L -81 3
L -81 466
L 106 466
Q 575 466 722 534
Q 631 600 564 739
Q 497 878 497 991
Q 497 1241 700 1572
Q 938 1959 1234 1959
Q 1522 1959 1672 1650
Q 1788 1413 1791 1091
Q 1794 881 1691 719
Q 1634 628 1519 541
Q 1663 466 2088 466
L 2247 466
L 2247 3
z
M 1559 1031
Q 1559 1175 1441 1328
Q 1316 1494 1178 1497
Q 1044 1500 895 1362
Q 747 1225 744 1091
Q 741 944 888 816
Q 1016 703 1172 669
Q 1316 688 1431 788
Q 1559 897 1559 1031
z
M 1444 2997
L 1119 2672
L 791 3000
L 1116 3325
L 1444 2997
z
" transform="scale(0.015625)"/>
      <path id="BNazanin-65" d="M 1038 797
Q 1038 3 247 3
L -81 3
L -81 466
L 191 466
Q 788 466 788 681
Q 788 831 516 1178
L 678 1572
Q 703 1631 719 1631
Q 734 1631 784 1559
Q 1038 1188 1038 797
z
M 1353 2547
L 1044 2238
L 731 2550
L 1041 2856
L 1353 2547
z
M 666 2547
L 359 2238
L 47 2550
L 356 2856
L 666 2547
z
" transform="scale(0.015625)"/>
     </defs>
     <use xlink:href="#BNazanin-a5"/>
     <use xlink:href="#BNazanin-7c" transform="translate(67.328125 0)"/>
     <use xlink:href="#BNazanin-c5" transform="translate(114.734375 0)"/>
     <use xlink:href="#BNazanin-3" transform="translate(154.1875 0)"/>
     <use xlink:href="#BNazanin-ae" transform="translate(178.609375 0)"/>
     <use xlink:href="#BNazanin-cc" transform="translate(263.328125 0)"/>
     <use xlink:href="#BNazanin-b0" transform="translate(294.09375 0)"/>
     <use xlink:href="#BNazanin-a8" transform="translate(337.0625 0)"/>
     <use xlink:href="#BNazanin-65" transform="translate(370.859375 0)"/>
    </g>
   </g>
   <g id="text_5">
    <!-- 20 هویت فراموشی -->
    <g transform="translate(696.624172 171.547296) scale(0.11 -0.11)">
     <defs>
      <path id="BNazanin-8b" d="M 3234 856
Q 3234 500 3069 269
Q 2881 3 2541 3
Q 2141 3 1966 331
Q 1744 3 1403 3
Q 966 3 819 331
Q 591 3 197 3
L -81 3
L -81 466
L 238 466
Q 672 466 750 934
Q 769 1050 825 1050
Q 875 1050 888 931
Q 934 466 1391 466
Q 1659 466 1772 603
Q 1850 700 1884 931
Q 1900 1044 1950 1044
Q 2003 1044 2019 934
Q 2081 466 2500 466
Q 2956 466 2956 681
Q 2956 853 2731 1138
L 2913 1478
Q 2956 1559 2975 1559
Q 2994 1559 3044 1469
Q 3234 1122 3234 856
z
M 2234 2941
L 1944 2647
L 1650 2944
L 1941 3234
L 2234 2941
z
M 2597 2316
L 2300 2022
L 2006 2319
L 2300 2609
L 2597 2316
z
M 1884 2316
L 1591 2022
L 1294 2319
L 1588 2609
L 1884 2316
z
" transform="scale(0.015625)"/>
      <path id="BNazanin-80" d="M 2488 3
L 2319 3
Q 2100 3 1988 78
Q 1994 16 1994 -47
Q 1994 -609 1628 -1131
Q 1313 -1581 1113 -1581
Q 656 -1581 325 -1534
Q 216 -1519 216 -1481
Q 216 -1444 328 -1422
Q 797 -1325 1272 -925
Q 1778 -497 1778 -103
Q 1778 159 1359 566
L 1544 941
Q 1566 988 1581 991
Q 1600 984 1634 938
Q 1819 694 1919 613
Q 2106 466 2363 466
L 2488 466
L 2488 3
z
" transform="scale(0.015625)"/>
      <path id="BNazanin-a7" d="M 1631 1134
L 1631 972
Q 1631 578 1513 406
Q 1234 3 481 3
L -81 3
L -81 466
L 316 466
Q 1341 466 1431 800
Q 1441 834 1441 881
Q 1441 975 1406 1034
Q 1150 981 875 981
Q 316 981 313 1447
Q 309 1769 466 2078
Q 653 2450 947 2450
Q 1206 2450 1406 2116
Q 1631 1738 1631 1134
z
M 1328 1481
Q 1328 1672 1195 1828
Q 1063 1984 875 1984
Q 741 1984 653 1900
Q 566 1816 563 1684
Q 559 1434 947 1428
Q 1116 1425 1328 1481
z
M 1166 3328
L 844 3003
L 516 3331
L 841 3656
L 1166 3328
z
" transform="scale(0.015625)"/>
      <path id="BNazanin-10" d="M 2516 3456
Q 2516 3009 2253 2719
Q 1981 2422 1538 2422
Q 1391 2422 1231 2456
Q 1397 2103 1522 1619
Q 1669 1044 1669 559
Q 1669 -103 1494 -103
Q 1422 -103 1400 100
L 1334 713
Q 1291 1119 1075 1722
Q 819 2438 369 3072
L 659 3569
Q 881 3256 997 3153
Q 1219 2956 1506 2956
Q 2088 2956 2309 3475
Q 2369 3613 2438 3613
Q 2516 3613 2516 3456
z
" transform="scale(0.015625)"/>
     </defs>
     <use xlink:href="#BNazanin-ca"/>
     <use xlink:href="#BNazanin-8b" transform="translate(62.359375 0)"/>
     <use xlink:href="#BNazanin-c2" transform="translate(113.1875 0)"/>
     <use xlink:href="#BNazanin-bb" transform="translate(150.6875 0)"/>
     <use xlink:href="#BNazanin-59" transform="translate(183.015625 0)"/>
     <use xlink:href="#BNazanin-80" transform="translate(197.71875 0)"/>
     <use xlink:href="#BNazanin-a7" transform="translate(235.3125 0)"/>
     <use xlink:href="#BNazanin-3" transform="translate(260.75 0)"/>
     <use xlink:href="#BNazanin-64" transform="translate(285.171875 0)"/>
     <use xlink:href="#BNazanin-cb" transform="translate(358.953125 0)"/>
     <use xlink:href="#BNazanin-c2" transform="translate(381.171875 0)"/>
     <use xlink:href="#BNazanin-c5" transform="translate(418.671875 0)"/>
     <use xlink:href="#BNazanin-3" transform="translate(458.125 0)"/>
     <use xlink:href="#BNazanin-10" transform="translate(482.546875 0)"/>
     <use xlink:href="#BNazanin-e" transform="translate(529.421875 0)"/>
    </g>
    <!-- 80 هویت نگهداشت -->
    <g transform="translate(695.341125 193.747369) scale(0.11 -0.11)">
     <defs>
      <path id="BNazanin-c6" d="M 2569 3
L 2363 3
Q 2125 3 1916 -75
Q 1591 -197 1591 -484
Q 1591 -834 2069 -1134
L 1884 -1553
Q 1325 -1353 956 -994
Q 506 -556 469 3
L -81 3
L -81 466
L 447 466
Q 447 922 694 1494
Q 925 2031 1063 2031
Q 1203 2031 1391 1525
Q 1559 1069 1559 875
Q 1559 28 738 16
Q 788 -244 978 -481
Q 1169 -719 1409 -838
Q 1400 -753 1400 -672
Q 1400 -250 1603 44
Q 1894 466 2397 466
L 2569 466
L 2569 3
z
M 1350 650
Q 1350 769 1216 1088
Q 1072 1425 984 1425
Q 903 1425 794 1131
Q 672 806 672 469
Q 1350 469 1350 650
z
" transform="scale(0.015625)"/>
      <path id="BNazanin-b4" d="M 2378 3853
L 2297 3556
L 338 2928
L 422 3219
L 2378 3853
z
M 2788 3
L 2556 3
Q 2241 3 1922 284
Q 1700 481 1394 909
Q 1341 3 144 3
L -81 3
L -81 466
L 81 466
Q 1191 466 1191 913
Q 1191 1253 666 1747
Q 441 1959 141 2169
Q 141 2425 266 2553
Q 316 2603 2466 3256
Q 2459 3178 2334 2825
Q 1809 2688 559 2291
Q 1184 1641 1650 1100
Q 1922 784 2072 669
Q 2334 466 2625 466
L 2788 466
L 2788 3
z
" transform="scale(0.015625)"/>
      <path id="BNazanin-bf" d="M 1038 797
Q 1038 3 247 3
L -81 3
L -81 466
L 191 466
Q 788 466 788 681
Q 788 831 516 1178
L 678 1572
Q 703 1631 719 1631
Q 734 1631 784 1559
Q 1038 1188 1038 797
z
M 1006 2619
L 681 2294
L 356 2622
L 681 2947
L 1006 2619
z
" transform="scale(0.015625)"/>
      <path id="BNazanin-16" d="M 234 456
Q 381 638 519 863
Q 841 1391 1034 2003
Q 1178 2453 1291 3175
Q 1363 3638 1456 3638
Q 1534 3638 1609 3194
Q 1728 2491 1894 1991
Q 2225 997 2738 500
L 2563 -3
Q 2534 -81 2519 -81
Q 2497 -72 2450 -19
Q 2069 406 1753 1300
Q 1484 2059 1453 2506
Q 1391 1950 1184 1306
Q 900 416 475 -56
Q 431 -106 416 -109
Q 400 -100 381 -38
L 234 456
z
" transform="scale(0.015625)"/>
     </defs>
     <use xlink:href="#BNazanin-64"/>
     <use xlink:href="#BNazanin-8b" transform="translate(73.78125 0)"/>
     <use xlink:href="#BNazanin-59" transform="translate(124.609375 0)"/>
     <use xlink:href="#BNazanin-7c" transform="translate(139.3125 0)"/>
     <use xlink:href="#BNazanin-c6" transform="translate(186.71875 0)"/>
     <use xlink:href="#BNazanin-b4" transform="translate(225.53125 0)"/>
     <use xlink:href="#BNazanin-bf" transform="translate(267.8125 0)"/>
     <use xlink:href="#BNazanin-3" transform="translate(284.078125 0)"/>
     <use xlink:href="#BNazanin-64" transform="translate(308.5 0)"/>
     <use xlink:href="#BNazanin-cb" transform="translate(382.28125 0)"/>
     <use xlink:href="#BNazanin-c2" transform="translate(404.5 0)"/>
     <use xlink:href="#BNazanin-c5" transform="translate(442 0)"/>
     <use xlink:href="#BNazanin-3" transform="translate(481.453125 0)"/>
     <use xlink:href="#BNazanin-16" transform="translate(505.875 0)"/>
     <use xlink:href="#BNazanin-e" transform="translate(552.75 0)"/>
    </g>
   </g>
   <g id="text_6">
    <g id="patch_16">
     <path d="M 774.81585 117.658734
C 776.336528 117.658734 777.795128 117.054562 778.87041 115.97928
C 779.945692 114.903998 780.549864 113.445398 780.549864 111.92472
C 780.549864 110.404042 779.945692 108.945442 778.87041 107.87016
C 777.795128 106.794878 776.336528 106.190706 774.81585 106.190706
C 773.295172 106.190706 771.836572 106.794878 770.76129 107.87016
C 769.686008 108.945442 769.081836 110.404042 769.081836 111.92472
C 769.081836 113.445398 769.686008 114.903998 770.76129 115.97928
C 771.836572 117.054562 773.295172 117.658734 774.81585 117.658734
z
" style="fill: #17365d"/>
    </g>
    <!-- 2 -->
    <g style="fill: #ffffff" transform="translate(772.69085 113.954261) scale(0.085 -0.085)">
     <defs>
      <path id="TimesNewRomanPSMT-15" d="M 2934 816
L 2638 0
L 138 0
L 138 116
Q 1241 1122 1691 1759
Q 2141 2397 2141 2925
Q 2141 3328 1894 3587
Q 1647 3847 1303 3847
Q 991 3847 742 3664
Q 494 3481 375 3128
L 259 3128
Q 338 3706 661 4015
Q 984 4325 1469 4325
Q 1984 4325 2329 3994
Q 2675 3663 2675 3213
Q 2675 2891 2525 2569
Q 2294 2063 1775 1497
Q 997 647 803 472
L 1909 472
Q 2247 472 2383 497
Q 2519 522 2628 598
Q 2738 675 2819 816
L 2934 816
z
" transform="scale(0.015625)"/>
     </defs>
     <use xlink:href="#TimesNewRomanPSMT-15"/>
    </g>
   </g>
   <g id="text_7">
    <!-- یادگیری خط مبنا -->
    <g transform="translate(564.909156 138.758711) scale(0.125 -0.125)">
     <defs>
      <path id="BNazanin-5a" d="M 1584 3
L 1313 3
Q 866 3 694 369
Q 572 625 575 1134
L 578 1897
Q 581 2450 484 3453
L 731 3716
Q 800 3788 813 3706
Q 897 3184 897 2128
L 897 963
Q 897 466 1375 466
L 1584 466
L 1584 3
z
" transform="scale(0.015625)"/>
      <path id="BNazanin-5e" d="M 2050 3
L 1744 3
Q 1191 3 1003 366
Q 797 3 178 3
L -81 3
L -81 466
L 275 466
Q 859 466 913 919
Q 934 1100 1003 1100
Q 1072 1100 1091 913
Q 1131 466 1697 466
L 2050 466
L 2050 3
z
M 1184 -878
L 859 -1203
L 531 -875
L 856 -550
L 1184 -878
z
" transform="scale(0.015625)"/>
      <path id="BNazanin-96" d="M 4488 0
L 4322 0
Q 3769 0 3316 128
Q 2803 6 1741 6
Q 1294 6 1103 56
Q 688 166 522 544
Q 494 606 494 625
Q 494 641 509 641
Q 528 641 594 609
Q 884 472 1356 472
Q 1531 472 1593 531
Q 1656 591 1653 763
Q 1650 1019 1634 1672
Q 1600 2672 1494 3444
L 1778 3731
Q 1819 3772 1831 3775
Q 1847 3775 1872 3684
Q 1931 3459 2044 3194
Q 2072 3125 2066 3113
Q 2050 3106 2003 3106
L 1878 3106
Q 1938 2028 1938 1828
L 1938 1397
Q 1938 1159 1828 716
Q 1866 716 2131 966
Q 2459 1275 2706 1431
Q 3103 1681 3447 1681
Q 3747 1681 3934 1538
Q 4147 1378 4147 1088
Q 4147 672 3859 428
Q 3938 428 4091 447
Q 4244 466 4322 466
L 4488 466
L 4488 0
z
M 3869 828
Q 3869 1022 3641 1156
Q 3444 1272 3238 1272
Q 2797 1272 1866 497
Q 2125 469 2394 469
Q 2747 469 3206 541
Q 3869 644 3869 828
z
" transform="scale(0.015625)"/>
      <path id="BNazanin-79" d="M 3203 1166
L 3028 853
Q 2581 859 2403 794
Q 2163 703 1678 463
Q 1209 228 953 138
Q 575 3 203 3
L -81 3
L -81 466
L 219 466
Q 775 466 1197 650
L 2128 1056
Q 1906 1106 1419 1288
Q 1016 1438 897 1438
Q 666 1438 425 1234
Q 378 1194 341 1194
Q 300 1194 300 1247
Q 300 1269 313 1306
Q 509 1884 984 1884
Q 1153 1884 1444 1753
Q 1931 1534 2169 1453
Q 2578 1316 3144 1278
Q 3244 1272 3244 1253
Q 3244 1238 3203 1166
z
M 2069 2988
L 1744 2663
L 1419 2991
L 1744 3316
L 2069 2988
z
" transform="scale(0.015625)"/>
      <path id="BNazanin-c9" d="M 4122 1466
Q 4147 1353 4131 1338
Q 4119 1322 4031 1372
Q 3847 1475 3563 1475
Q 3169 1475 2831 1141
Q 2553 863 2553 700
Q 2553 506 3109 406
Q 3719 294 3822 113
Q 3844 75 3844 -9
Q 3844 -338 3634 -672
Q 3497 -894 3034 -1078
Q 2463 -1306 1725 -1306
Q 1206 -1306 863 -1041
Q 484 -747 484 -244
Q 484 316 850 797
Q 906 869 959 884
Q 1009 897 1009 847
Q 1009 809 975 747
Q 741 316 741 -56
Q 741 -328 944 -547
Q 1222 -844 1769 -844
Q 2256 -844 2797 -722
Q 3578 -547 3578 -231
Q 3578 -113 2813 34
Q 2528 91 2425 150
Q 2278 238 2278 447
Q 2278 838 2684 1363
Q 3122 1928 3550 1928
Q 4016 1928 4122 1466
z
" transform="scale(0.015625)"/>
      <path id="BNazanin-b3" d="M 2403 3841
L 2322 3544
L 363 2916
L 447 3203
L 2403 3841
z
M 2488 3244
Q 2472 3141 2363 2803
Q 1638 2622 597 2266
Q 1338 1559 1403 1091
Q 1447 763 1328 500
Q 1197 209 903 100
Q 644 3 91 3
L -81 3
L -81 466
L 56 466
Q 1197 466 1197 859
Q 1197 1178 572 1778
L 519 1678
Q 453 1731 303 1913
Q 141 2109 141 2156
Q 141 2359 291 2525
Q 325 2563 1088 2816
Q 1897 3084 2488 3244
z
" transform="scale(0.015625)"/>
     </defs>
     <use xlink:href="#BNazanin-5a"/>
     <use xlink:href="#BNazanin-c0" transform="translate(23.4375 0)"/>
     <use xlink:href="#BNazanin-5e" transform="translate(54.203125 0)"/>
     <use xlink:href="#BNazanin-bb" transform="translate(84.96875 0)"/>
     <use xlink:href="#BNazanin-3" transform="translate(117.296875 0)"/>
     <use xlink:href="#BNazanin-96" transform="translate(141.71875 0)"/>
     <use xlink:href="#BNazanin-79" transform="translate(210.515625 0)"/>
     <use xlink:href="#BNazanin-3" transform="translate(261.203125 0)"/>
     <use xlink:href="#BNazanin-c9" transform="translate(285.625 0)"/>
     <use xlink:href="#BNazanin-80" transform="translate(350.375 0)"/>
     <use xlink:href="#BNazanin-cc" transform="translate(387.96875 0)"/>
     <use xlink:href="#BNazanin-b3" transform="translate(418.734375 0)"/>
     <use xlink:href="#BNazanin-7b" transform="translate(456.09375 0)"/>
     <use xlink:href="#BNazanin-5a" transform="translate(494.28125 0)"/>
     <use xlink:href="#BNazanin-cb" transform="translate(517.71875 0)"/>
    </g>
   </g>
   <g id="text_8">
    <!-- فراموشی 95.0% -->
    <g transform="translate(571.938141 171.547296) scale(0.11 -0.11)">
     <defs>
      <path id="BNazanin-5" d="M 722 3200
Q 722 2947 466 2947
Q 359 2947 287 3020
Q 216 3094 216 3200
Q 216 3303 289 3376
Q 363 3450 466 3450
Q 572 3450 647 3378
Q 722 3306 722 3200
z
M 2231 3738
L 788 -381
L 613 -319
L 2066 3800
L 2231 3738
z
M 2559 219
Q 2559 113 2487 39
Q 2416 -34 2309 -34
Q 2203 -34 2129 39
Q 2056 113 2056 219
Q 2056 325 2129 398
Q 2203 472 2309 472
Q 2416 472 2487 398
Q 2559 325 2559 219
z
" transform="scale(0.015625)"/>
      <path id="BNazanin-17" d="M 2522 503
L 2403 -44
Q 2388 -109 2375 -113
Q 2359 -113 2291 -38
Q 1953 331 1847 888
Q 1784 1219 1784 1928
Q 1563 1844 1206 1844
Q 513 1844 513 2428
Q 513 2838 725 3203
Q 959 3606 1284 3606
Q 1728 3606 1925 3144
Q 2066 2816 2066 2300
Q 2066 1519 2200 1072
Q 2303 731 2522 503
z
M 1725 2431
Q 1713 2659 1578 2847
Q 1428 3063 1213 3063
Q 1053 3063 928 2941
Q 803 2819 803 2659
Q 803 2359 1300 2359
Q 1553 2359 1725 2431
z
" transform="scale(0.015625)"/>
      <path id="BNazanin-c" d="M 1041 284
Q 1041 172 958 90
Q 875 9 763 9
Q 650 9 567 90
Q 484 172 484 284
Q 484 397 567 480
Q 650 563 763 563
Q 875 563 958 480
Q 1041 397 1041 284
z
" transform="scale(0.015625)"/>
     </defs>
     <use xlink:href="#BNazanin-5"/>
     <use xlink:href="#BNazanin-17" transform="translate(43.65625 0)"/>
     <use xlink:href="#BNazanin-13" transform="translate(90.53125 0)"/>
     <use xlink:href="#BNazanin-c" transform="translate(137.40625 0)"/>
     <use xlink:href="#BNazanin-e" transform="translate(153.71875 0)"/>
     <use xlink:href="#BNazanin-3" transform="translate(200.59375 0)"/>
     <use xlink:href="#BNazanin-ca" transform="translate(225.015625 0)"/>
     <use xlink:href="#BNazanin-8b" transform="translate(287.375 0)"/>
     <use xlink:href="#BNazanin-c2" transform="translate(338.203125 0)"/>
     <use xlink:href="#BNazanin-bb" transform="translate(375.703125 0)"/>
     <use xlink:href="#BNazanin-59" transform="translate(408.03125 0)"/>
     <use xlink:href="#BNazanin-80" transform="translate(422.734375 0)"/>
     <use xlink:href="#BNazanin-a7" transform="translate(460.328125 0)"/>
    </g>
    <!-- نگهداشت 94.6% -->
    <g transform="translate(570.848453 193.761119) scale(0.11 -0.11)">
     <defs>
      <path id="BNazanin-12" d="M 2666 2625
Q 2666 2466 2434 2300
Q 2178 2116 1859 2116
Q 1491 2116 1266 2269
Q 1397 2047 1503 1622
Q 1625 1131 1625 666
Q 1625 216 1619 150
Q 1594 -106 1475 -106
Q 1406 -106 1381 100
Q 1363 263 1309 684
Q 1253 1088 1078 1603
Q 803 2416 331 3038
L 628 3563
Q 791 3322 1119 2913
Q 1138 3259 1359 3484
Q 1581 3709 1925 3709
Q 2125 3709 2303 3588
Q 2444 3491 2484 3397
Q 2503 3350 2476 3326
Q 2450 3303 2403 3319
Q 2225 3375 1966 3375
Q 1756 3375 1618 3258
Q 1481 3141 1481 2934
Q 1481 2900 1488 2875
Q 1522 2734 1688 2647
Q 1831 2572 1994 2566
Q 2288 2556 2484 2672
Q 2559 2716 2603 2716
Q 2666 2716 2666 2625
z
" transform="scale(0.015625)"/>
      <path id="BNazanin-14" d="M 2575 2534
L 2363 1925
Q 1091 1500 419 -6
Q 375 -103 322 -103
Q 250 -103 263 16
Q 306 428 566 959
Q 800 1438 1116 1722
Q 384 1816 384 2422
Q 384 2719 744 3138
Q 1141 3600 1509 3600
Q 1703 3600 1906 3469
Q 2125 3325 2156 3144
Q 2166 3097 2136 3070
Q 2106 3044 2059 3056
Q 1756 3138 1500 3138
Q 1250 3138 1031 2997
Q 784 2838 784 2600
Q 784 2203 1472 2203
Q 1650 2203 1966 2350
Q 2066 2397 2456 2588
Q 2531 2625 2563 2606
Q 2594 2588 2575 2534
z
" transform="scale(0.015625)"/>
     </defs>
     <use xlink:href="#BNazanin-5"/>
     <use xlink:href="#BNazanin-17" transform="translate(43.65625 0)"/>
     <use xlink:href="#BNazanin-12" transform="translate(90.53125 0)"/>
     <use xlink:href="#BNazanin-c" transform="translate(137.40625 0)"/>
     <use xlink:href="#BNazanin-14" transform="translate(153.71875 0)"/>
     <use xlink:href="#BNazanin-3" transform="translate(197.078125 0)"/>
     <use xlink:href="#BNazanin-64" transform="translate(221.5 0)"/>
     <use xlink:href="#BNazanin-8b" transform="translate(295.28125 0)"/>
     <use xlink:href="#BNazanin-59" transform="translate(346.109375 0)"/>
     <use xlink:href="#BNazanin-7c" transform="translate(360.8125 0)"/>
     <use xlink:href="#BNazanin-c6" transform="translate(408.21875 0)"/>
     <use xlink:href="#BNazanin-b4" transform="translate(447.03125 0)"/>
     <use xlink:href="#BNazanin-bf" transform="translate(489.3125 0)"/>
    </g>
   </g>
   <g id="text_9">
    <g id="patch_17">
     <path d="M 645.1506 117.658734
C 646.671278 117.658734 648.129878 117.054562 649.20516 115.97928
C 650.280442 114.903998 650.884614 113.445398 650.884614 111.92472
C 650.884614 110.404042 650.280442 108.945442 649.20516 107.87016
C 648.129878 106.794878 646.671278 106.190706 645.1506 106.190706
C 643.629922 106.190706 642.171322 106.794878 641.09604 107.87016
C 640.020758 108.945442 639.416586 110.404042 639.416586 111.92472
C 639.416586 113.445398 640.020758 114.903998 641.09604 115.97928
C 642.171322 117.054562 643.629922 117.658734 645.1506 117.658734
z
" style="fill: #17365d"/>
    </g>
    <!-- 3 -->
    <g style="fill: #ffffff" transform="translate(643.0256 113.954261) scale(0.085 -0.085)">
     <defs>
      <path id="TimesNewRomanPSMT-16" d="M 325 3431
Q 506 3859 782 4092
Q 1059 4325 1472 4325
Q 1981 4325 2253 3994
Q 2459 3747 2459 3466
Q 2459 3003 1878 2509
Q 2269 2356 2469 2072
Q 2669 1788 2669 1403
Q 2669 853 2319 450
Q 1863 -75 997 -75
Q 569 -75 414 31
Q 259 138 259 259
Q 259 350 332 419
Q 406 488 509 488
Q 588 488 669 463
Q 722 447 909 348
Q 1097 250 1169 231
Q 1284 197 1416 197
Q 1734 197 1970 444
Q 2206 691 2206 1028
Q 2206 1275 2097 1509
Q 2016 1684 1919 1775
Q 1784 1900 1550 2001
Q 1316 2103 1072 2103
L 972 2103
L 972 2197
Q 1219 2228 1467 2375
Q 1716 2522 1828 2728
Q 1941 2934 1941 3181
Q 1941 3503 1739 3701
Q 1538 3900 1238 3900
Q 753 3900 428 3381
L 325 3431
z
" transform="scale(0.015625)"/>
     </defs>
     <use xlink:href="#TimesNewRomanPSMT-16"/>
    </g>
   </g>
   <g id="text_10">
    <!-- مداخله‌های نامزد -->
    <g transform="translate(437.140391 138.758711) scale(0.125 -0.125)">
     <defs>
      <path id="BNazanin-82" d="M 2488 3
L 2319 3
Q 2100 3 1988 78
Q 1994 16 1994 -47
Q 1994 -609 1628 -1131
Q 1313 -1581 1113 -1581
Q 656 -1581 325 -1534
Q 216 -1519 216 -1481
Q 216 -1444 328 -1422
Q 797 -1325 1272 -925
Q 1778 -497 1778 -103
Q 1778 159 1359 566
L 1544 941
Q 1566 988 1581 991
Q 1600 984 1634 938
Q 1819 694 1919 613
Q 2106 466 2363 466
L 2488 466
L 2488 3
z
M 1722 2113
L 1397 1788
L 1072 2116
L 1397 2438
L 1722 2113
z
" transform="scale(0.015625)"/>
      <path id="BNazanin-c4" d="M 2738 3
L 2441 3
Q 1928 3 1791 641
Q 1509 363 1466 363
L 1113 363
Q 925 363 741 419
Q 484 497 484 638
Q 484 1088 803 1369
Q 1016 1556 1538 1763
L 1459 2147
L 1728 2450
Q 1744 2400 2000 1141
Q 2078 756 2144 641
Q 2244 466 2459 466
L 2738 466
L 2738 3
z
M 1741 819
L 1606 1453
Q 1403 1394 1122 1256
Q 738 1069 738 959
Q 738 869 1031 819
Q 1238 784 1397 784
Q 1594 784 1741 819
z
" transform="scale(0.015625)"/>
      <path id="BNazanin-b8" d="M 1559 3
L 1397 3
Q 878 3 681 384
Q 628 213 438 103
Q 266 3 72 3
L -81 3
L -81 466
L 78 466
Q 575 466 575 881
L 575 2266
Q 575 3056 541 3478
L 881 3766
L 881 1075
Q 881 466 1400 466
L 1559 466
L 1559 3
z
" transform="scale(0.015625)"/>
     </defs>
     <use xlink:href="#BNazanin-7b"/>
     <use xlink:href="#BNazanin-82" transform="translate(38.1875 0)"/>
     <use xlink:href="#BNazanin-bb" transform="translate(75.78125 0)"/>
     <use xlink:href="#BNazanin-5a" transform="translate(108.109375 0)"/>
     <use xlink:href="#BNazanin-bf" transform="translate(131.546875 0)"/>
     <use xlink:href="#BNazanin-3" transform="translate(147.8125 0)"/>
     <use xlink:href="#BNazanin-c9" transform="translate(172.234375 0)"/>
     <use xlink:href="#BNazanin-5a" transform="translate(236.984375 0)"/>
     <use xlink:href="#BNazanin-c5" transform="translate(260.421875 0)"/>
     <use xlink:href="#BNazanin-3" transform="translate(299.875 0)"/>
     <use xlink:href="#BNazanin-c4" transform="translate(299.875 0)"/>
     <use xlink:href="#BNazanin-b8" transform="translate(341.375 0)"/>
     <use xlink:href="#BNazanin-79" transform="translate(364.46875 0)"/>
     <use xlink:href="#BNazanin-59" transform="translate(415.15625 0)"/>
     <use xlink:href="#BNazanin-7c" transform="translate(429.859375 0)"/>
     <use xlink:href="#BNazanin-bb" transform="translate(477.265625 0)"/>
    </g>
   </g>
   <g id="text_11">
    <!-- صعود و حفاظت -->
    <g transform="translate(442.68625 171.684796) scale(0.11 -0.11)">
     <defs>
      <path id="BNazanin-9b" d="M 3128 1088
Q 3128 428 2409 181
Q 1891 3 722 3
L -81 3
L -81 466
L 338 466
Q 528 466 591 544
Q 638 603 634 791
Q 631 1041 616 1688
Q 581 2672 475 3444
L 759 3731
Q 800 3772 813 3775
Q 828 3775 853 3684
Q 913 3459 1025 3194
Q 1053 3125 1047 3113
Q 1031 3106 984 3106
L 859 3106
Q 919 2028 919 1828
L 919 1397
Q 919 1159 809 716
Q 847 716 1113 966
Q 1441 1275 1688 1431
Q 2084 1681 2428 1681
Q 2728 1681 2916 1538
Q 3128 1378 3128 1088
z
M 2850 828
Q 2850 1022 2622 1156
Q 2425 1272 2219 1272
Q 1778 1272 847 497
Q 1106 469 1375 469
Q 1728 469 2188 541
Q 2850 644 2850 828
z
M 2575 2800
L 2253 2475
L 1925 2803
L 2250 3128
L 2575 2800
z
" transform="scale(0.015625)"/>
      <path id="BNazanin-75" d="M 3203 1166
L 3028 853
Q 2581 859 2403 794
Q 2163 703 1678 463
Q 1209 228 953 138
Q 575 3 203 3
L -81 3
L -81 466
L 219 466
Q 775 466 1197 650
L 2128 1056
Q 1906 1106 1419 1288
Q 1016 1438 897 1438
Q 666 1438 425 1234
Q 378 1194 341 1194
Q 300 1194 300 1247
Q 300 1269 313 1306
Q 509 1884 984 1884
Q 1153 1884 1444 1753
Q 1931 1534 2169 1453
Q 2578 1316 3144 1278
Q 3244 1272 3244 1253
Q 3244 1238 3203 1166
z
" transform="scale(0.015625)"/>
      <path id="BNazanin-8f" d="M 3569 1063
Q 3569 463 2866 194
Q 2375 6 1666 6
Q 1256 6 1084 50
Q 794 125 672 369
Q 453 3 84 3
L -81 3
L -81 466
L 81 466
Q 534 466 616 925
Q 634 1038 691 1038
Q 747 1038 759 925
Q 806 503 1144 484
Q 2256 1681 2906 1681
Q 3184 1681 3372 1513
Q 3569 1334 3569 1063
z
M 3278 831
Q 3278 1009 3078 1134
Q 2903 1244 2716 1244
Q 2153 1244 1422 484
Q 1591 475 1763 475
Q 2159 475 2597 538
Q 3278 634 3278 831
z
" transform="scale(0.015625)"/>
     </defs>
     <use xlink:href="#BNazanin-64"/>
     <use xlink:href="#BNazanin-9b" transform="translate(73.78125 0)"/>
     <use xlink:href="#BNazanin-5a" transform="translate(122.703125 0)"/>
     <use xlink:href="#BNazanin-a8" transform="translate(146.140625 0)"/>
     <use xlink:href="#BNazanin-75" transform="translate(179.9375 0)"/>
     <use xlink:href="#BNazanin-3" transform="translate(230.625 0)"/>
     <use xlink:href="#BNazanin-c1" transform="translate(255.046875 0)"/>
     <use xlink:href="#BNazanin-3" transform="translate(287.21875 0)"/>
     <use xlink:href="#BNazanin-7b" transform="translate(311.640625 0)"/>
     <use xlink:href="#BNazanin-c2" transform="translate(349.828125 0)"/>
     <use xlink:href="#BNazanin-a0" transform="translate(387.328125 0)"/>
     <use xlink:href="#BNazanin-8f" transform="translate(422.4375 0)"/>
    </g>
    <!-- به‌روزرسانی آداپتور -->
    <g transform="translate(438.082578 194.042994) scale(0.11 -0.11)">
     <defs>
      <path id="BNazanin-7f" d="M 2016 -34
Q 2016 -619 1644 -1138
Q 1325 -1581 1113 -1581
Q 656 -1581 325 -1534
Q 216 -1519 216 -1481
Q 216 -1444 328 -1422
Q 797 -1325 1272 -925
Q 1778 -497 1778 -103
Q 1778 159 1359 566
L 1541 944
Q 1566 994 1578 997
Q 1597 991 1631 947
Q 1775 772 1891 481
Q 2016 175 2016 -34
z
" transform="scale(0.015625)"/>
      <path id="BNazanin-66" d="M 2050 3
L 1744 3
Q 1191 3 1003 366
Q 797 3 178 3
L -81 3
L -81 466
L 275 466
Q 859 466 913 919
Q 934 1100 1003 1100
Q 1072 1100 1091 913
Q 1131 466 1697 466
L 2050 466
L 2050 3
z
M 1378 2325
L 1072 2019
L 759 2328
L 1069 2638
L 1378 2325
z
M 694 2325
L 384 2019
L 75 2328
L 381 2638
L 694 2325
z
" transform="scale(0.015625)"/>
      <path id="BNazanin-61" d="M 1038 797
Q 1038 3 247 3
L -81 3
L -81 466
L 191 466
Q 788 466 788 681
Q 788 831 516 1178
L 678 1572
Q 703 1631 719 1631
Q 734 1631 784 1559
Q 1038 1188 1038 797
z
M 447 -1409
L 738 -1119
L 1031 -1413
L 741 -1703
L 447 -1409
z
M 84 -784
L 381 -494
L 675 -788
L 381 -1078
L 84 -784
z
M 797 -784
L 1091 -494
L 1388 -788
L 1094 -1078
L 797 -784
z
" transform="scale(0.015625)"/>
      <path id="BNazanin-4d" d="M 1350 497
Q 1350 259 1247 50
Q 1188 -72 1166 -72
Q 1141 -72 1141 81
Q 1141 775 897 3469
L 1228 3778
Q 1272 3819 1288 3822
Q 1303 3822 1306 3753
Q 1350 2994 1350 497
z
M 1609 4284
Q 1350 4072 966 4072
Q 909 4072 796 4086
Q 684 4100 628 4100
Q 591 4100 520 4012
Q 450 3925 422 3925
Q 369 3925 369 4000
Q 369 4050 438 4203
Q 513 4372 569 4372
Q 647 4372 801 4345
Q 956 4319 1034 4319
Q 1378 4319 1547 4366
Q 1638 4391 1666 4391
Q 1691 4391 1691 4375
Q 1691 4350 1609 4284
z
" transform="scale(0.015625)"/>
      <path id="BNazanin-87" d="M 3234 856
Q 3234 500 3069 269
Q 2881 3 2541 3
Q 2141 3 1966 331
Q 1744 3 1403 3
Q 966 3 819 331
Q 591 3 197 3
L -81 3
L -81 466
L 238 466
Q 672 466 750 934
Q 769 1050 825 1050
Q 875 1050 888 931
Q 934 466 1391 466
Q 1659 466 1772 603
Q 1850 700 1884 931
Q 1900 1044 1950 1044
Q 2003 1044 2019 934
Q 2081 466 2500 466
Q 2956 466 2956 681
Q 2956 853 2731 1138
L 2913 1478
Q 2956 1559 2975 1559
Q 2994 1559 3044 1469
Q 3234 1122 3234 856
z
" transform="scale(0.015625)"/>
      <path id="BNazanin-81" d="M 2016 -34
Q 2016 -619 1644 -1138
Q 1325 -1581 1113 -1581
Q 656 -1581 325 -1534
Q 216 -1519 216 -1481
Q 216 -1444 328 -1422
Q 797 -1325 1272 -925
Q 1778 -497 1778 -103
Q 1778 159 1359 566
L 1541 944
Q 1566 994 1578 997
Q 1597 991 1631 947
Q 1775 772 1891 481
Q 2016 175 2016 -34
z
M 1722 2113
L 1397 1788
L 1072 2116
L 1397 2438
L 1722 2113
z
" transform="scale(0.015625)"/>
      <path id="BNazanin-5d" d="M 1038 797
Q 1038 3 247 3
L -81 3
L -81 466
L 191 466
Q 788 466 788 681
Q 788 831 516 1178
L 678 1572
Q 703 1631 719 1631
Q 734 1631 784 1559
Q 1038 1188 1038 797
z
M 909 -878
L 584 -1203
L 256 -875
L 581 -550
L 909 -878
z
" transform="scale(0.015625)"/>
     </defs>
     <use xlink:href="#BNazanin-7f"/>
     <use xlink:href="#BNazanin-c2" transform="translate(31.59375 0)"/>
     <use xlink:href="#BNazanin-66" transform="translate(69.09375 0)"/>
     <use xlink:href="#BNazanin-61" transform="translate(99.859375 0)"/>
     <use xlink:href="#BNazanin-59" transform="translate(122.328125 0)"/>
     <use xlink:href="#BNazanin-7b" transform="translate(137.03125 0)"/>
     <use xlink:href="#BNazanin-4d" transform="translate(175.21875 0)"/>
     <use xlink:href="#BNazanin-3" transform="translate(199.921875 0)"/>
     <use xlink:href="#BNazanin-ca" transform="translate(224.34375 0)"/>
     <use xlink:href="#BNazanin-bf" transform="translate(286.703125 0)"/>
     <use xlink:href="#BNazanin-5a" transform="translate(302.96875 0)"/>
     <use xlink:href="#BNazanin-87" transform="translate(326.40625 0)"/>
     <use xlink:href="#BNazanin-7f" transform="translate(377.234375 0)"/>
     <use xlink:href="#BNazanin-81" transform="translate(408.828125 0)"/>
     <use xlink:href="#BNazanin-c1" transform="translate(440.421875 0)"/>
     <use xlink:href="#BNazanin-7f" transform="translate(472.59375 0)"/>
     <use xlink:href="#BNazanin-3" transform="translate(504.1875 0)"/>
     <use xlink:href="#BNazanin-c4" transform="translate(504.1875 0)"/>
     <use xlink:href="#BNazanin-5d" transform="translate(545.6875 0)"/>
    </g>
   </g>
   <g id="text_12">
    <g id="patch_18">
     <path d="M 515.48535 117.658734
C 517.006028 117.658734 518.464628 117.054562 519.53991 115.97928
C 520.615192 114.903998 521.219364 113.445398 521.219364 111.92472
C 521.219364 110.404042 520.615192 108.945442 519.53991 107.87016
C 518.464628 106.794878 517.006028 106.190706 515.48535 106.190706
C 513.964672 106.190706 512.506072 106.794878 511.43079 107.87016
C 510.355508 108.945442 509.751336 110.404042 509.751336 111.92472
C 509.751336 113.445398 510.355508 114.903998 511.43079 115.97928
C 512.506072 117.054562 513.964672 117.658734 515.48535 117.658734
z
" style="fill: #17365d"/>
    </g>
    <!-- 4 -->
    <g style="fill: #ffffff" transform="translate(513.36035 113.954261) scale(0.085 -0.085)">
     <defs>
      <path id="TimesNewRomanPSMT-17" d="M 2978 1563
L 2978 1119
L 2409 1119
L 2409 0
L 1894 0
L 1894 1119
L 100 1119
L 100 1519
L 2066 4325
L 2409 4325
L 2409 1563
L 2978 1563
z
M 1894 1563
L 1894 3666
L 406 1563
L 1894 1563
z
" transform="scale(0.015625)"/>
     </defs>
     <use xlink:href="#TimesNewRomanPSMT-17"/>
    </g>
   </g>
   <g id="text_13">
    <!-- کنترل تعارض -->
    <g transform="translate(313.19975 138.758711) scale(0.125 -0.125)">
     <defs>
      <path id="BNazanin-91" d="M 5881 1041
Q 5881 463 5231 188
Q 4753 -16 4088 -16
Q 3709 -16 3428 75
Q 3416 -303 3384 -728
Q 3225 -1175 2697 -1419
Q 2244 -1628 1716 -1628
Q 1191 -1628 853 -1369
Q 484 -1081 484 -569
Q 484 -297 619 13
Q 716 234 819 359
Q 869 419 909 419
Q 947 419 947 375
Q 947 347 928 309
Q 750 -56 750 -359
Q 750 -656 947 -872
Q 1206 -1156 1731 -1156
Q 2325 -1156 2766 -944
Q 3128 -769 3222 -563
Q 3253 -494 3238 -309
Q 3222 -128 3172 0
Q 3094 200 2784 594
L 2959 925
Q 2997 997 3019 997
Q 3038 997 3072 938
Q 3231 663 3478 500
Q 4541 1659 5219 1659
Q 5497 1659 5684 1491
Q 5881 1313 5881 1041
z
M 5591 809
Q 5591 988 5391 1113
Q 5216 1222 5028 1222
Q 4472 1222 3731 463
Q 3900 453 4075 453
Q 4481 453 4909 513
Q 5591 606 5591 809
z
M 5000 2800
L 4675 2475
L 4347 2803
L 4672 3128
L 5000 2800
z
" transform="scale(0.015625)"/>
      <path id="BNazanin-b5" d="M 3419 3150
Q 3447 3084 3438 3075
Q 3431 3063 3363 3063
L 3228 3063
Q 3353 753 3309 -144
Q 3241 -1559 1656 -1559
Q 1144 -1559 838 -1344
Q 484 -1097 484 -603
Q 484 -103 759 284
Q 794 331 831 331
Q 881 331 881 272
Q 881 247 869 216
Q 738 -113 738 -334
Q 738 -713 1016 -919
Q 1263 -1103 1653 -1103
Q 2231 -1103 2650 -888
Q 3022 -697 3022 -494
Q 3022 2106 2847 3406
L 3125 3663
Q 3175 3709 3191 3713
Q 3206 3703 3225 3641
Q 3275 3481 3419 3150
z
" transform="scale(0.015625)"/>
      <path id="BNazanin-af" d="M 2559 3703
Q 2544 3600 2406 3244
L 1397 2928
Q 719 2709 478 2566
Q 953 2094 1122 1878
Q 1444 1466 1478 1097
Q 1506 800 1391 519
Q 1181 3 134 3
L -81 3
L -81 466
L 144 466
Q 616 466 822 509
Q 1253 600 1253 894
Q 1253 1294 597 1888
L 541 1800
Q 478 1850 325 2050
Q 159 2259 159 2306
Q 159 2419 203 2609
Q 253 2822 309 2888
Q 347 2931 1134 3225
Q 2019 3556 2559 3703
z
" transform="scale(0.015625)"/>
     </defs>
     <use xlink:href="#BNazanin-91"/>
     <use xlink:href="#BNazanin-7f" transform="translate(92 0)"/>
     <use xlink:href="#BNazanin-5a" transform="translate(123.59375 0)"/>
     <use xlink:href="#BNazanin-a0" transform="translate(147.03125 0)"/>
     <use xlink:href="#BNazanin-65" transform="translate(182.140625 0)"/>
     <use xlink:href="#BNazanin-3" transform="translate(203.28125 0)"/>
     <use xlink:href="#BNazanin-b5" transform="translate(227.703125 0)"/>
     <use xlink:href="#BNazanin-80" transform="translate(281.515625 0)"/>
     <use xlink:href="#BNazanin-66" transform="translate(319.109375 0)"/>
     <use xlink:href="#BNazanin-c0" transform="translate(349.875 0)"/>
     <use xlink:href="#BNazanin-af" transform="translate(380.640625 0)"/>
    </g>
   </g>
   <g id="text_14">
    <!-- فرافکنی و وزن‌دهی -->
    <g transform="translate(307.499516 171.547296) scale(0.11 -0.11)">
     <defs>
      <path id="BNazanin-bd" d="M 3453 59
Q 3488 -150 3488 -291
Q 3488 -516 3413 -728
Q 3256 -1175 2709 -1422
Q 2253 -1628 1716 -1628
Q 1191 -1628 853 -1369
Q 484 -1081 484 -569
Q 484 -297 619 13
Q 716 234 819 359
Q 869 419 909 419
Q 947 419 947 375
Q 947 347 928 309
Q 750 -56 750 -359
Q 750 -656 947 -872
Q 1206 -1156 1731 -1156
Q 2325 -1156 2781 -944
Q 3156 -769 3250 -563
Q 3281 -494 3281 -391
Q 3281 -231 3200 0
Q 3131 194 2825 628
L 2988 953
Q 3025 1025 3044 1025
Q 3063 1025 3100 966
Q 3375 538 3453 59
z
M 2275 1791
L 1950 1466
L 1622 1794
L 1947 2119
L 2275 1791
z
" transform="scale(0.015625)"/>
     </defs>
     <use xlink:href="#BNazanin-ca"/>
     <use xlink:href="#BNazanin-c5" transform="translate(62.359375 0)"/>
     <use xlink:href="#BNazanin-7b" transform="translate(101.8125 0)"/>
     <use xlink:href="#BNazanin-3" transform="translate(140 0)"/>
     <use xlink:href="#BNazanin-bd" transform="translate(140 0)"/>
     <use xlink:href="#BNazanin-81" transform="translate(194.59375 0)"/>
     <use xlink:href="#BNazanin-c1" transform="translate(226.1875 0)"/>
     <use xlink:href="#BNazanin-3" transform="translate(258.359375 0)"/>
     <use xlink:href="#BNazanin-c1" transform="translate(282.78125 0)"/>
     <use xlink:href="#BNazanin-3" transform="translate(314.953125 0)"/>
     <use xlink:href="#BNazanin-ca" transform="translate(339.375 0)"/>
     <use xlink:href="#BNazanin-c0" transform="translate(401.734375 0)"/>
     <use xlink:href="#BNazanin-b0" transform="translate(432.5 0)"/>
     <use xlink:href="#BNazanin-a7" transform="translate(475.46875 0)"/>
     <use xlink:href="#BNazanin-59" transform="translate(500.90625 0)"/>
     <use xlink:href="#BNazanin-80" transform="translate(515.609375 0)"/>
     <use xlink:href="#BNazanin-a7" transform="translate(553.203125 0)"/>
    </g>
    <!-- تطبیقی و بازگشت -->
    <g transform="translate(308.921781 193.570338) scale(0.11 -0.11)">
     <defs>
      <path id="BNazanin-8c" d="M 3772 3
L 3550 3
Q 3147 3 2984 331
Q 2841 3 2453 3
Q 2116 3 1934 331
Q 1766 3 1403 3
Q 966 3 819 331
Q 591 3 197 3
L -81 3
L -81 466
L 238 466
Q 672 466 750 934
Q 769 1050 825 1050
Q 875 1050 888 931
Q 934 466 1391 466
Q 1834 466 1884 931
Q 1897 1050 1947 1050
Q 2003 1050 2019 934
Q 2081 466 2438 466
Q 2881 466 2931 931
Q 2944 1050 2994 1050
Q 3050 1050 3066 934
Q 3125 466 3541 466
L 3772 466
L 3772 3
z
M 2263 2638
L 1972 2344
L 1675 2641
L 1969 2931
L 2263 2638
z
M 2622 2013
L 2328 1722
L 2034 2016
L 2325 2306
L 2622 2013
z
M 1909 2013
L 1619 1722
L 1322 2016
L 1616 2306
L 1909 2013
z
" transform="scale(0.015625)"/>
      <path id="BNazanin-ac" d="M 2247 3
L 2041 3
Q 1847 3 1578 75
Q 1291 150 1150 253
Q 784 3 209 3
L -81 3
L -81 466
L 106 466
Q 563 466 722 534
Q 497 709 497 991
Q 497 1238 703 1572
Q 944 1959 1234 1959
Q 1519 1959 1672 1650
Q 1791 1409 1791 1091
Q 1791 759 1519 541
Q 1669 466 2088 466
L 2247 466
L 2247 3
z
M 1559 1031
Q 1559 1172 1437 1334
Q 1316 1497 1178 1497
Q 1050 1497 897 1358
Q 744 1219 744 1091
Q 744 950 891 819
Q 1025 697 1172 669
Q 1300 691 1413 775
Q 1559 884 1559 1031
z
M 1759 2969
L 1450 2663
L 1141 2972
L 1447 3281
L 1759 2969
z
M 1075 2969
L 766 2663
L 453 2972
L 763 3281
L 1075 2969
z
" transform="scale(0.015625)"/>
      <path id="BNazanin-98" d="M 3469 0
L 3303 0
Q 2750 0 2297 128
Q 1772 3 722 3
L -81 3
L -81 466
L 338 466
Q 528 466 591 547
Q 638 606 634 791
Q 631 1041 616 1688
Q 581 2672 475 3444
L 759 3731
Q 800 3772 813 3775
Q 828 3775 853 3684
Q 913 3459 1025 3194
Q 1053 3125 1047 3113
Q 1031 3106 984 3106
L 859 3106
Q 919 2028 919 1828
L 919 1397
Q 919 1159 809 716
Q 847 716 1113 966
Q 1441 1275 1688 1431
Q 2084 1681 2428 1681
Q 2728 1681 2916 1538
Q 3128 1378 3128 1088
Q 3128 672 2841 428
Q 2919 428 3072 447
Q 3225 466 3303 466
L 3469 466
L 3469 0
z
M 2850 828
Q 2850 1022 2622 1156
Q 2425 1272 2219 1272
Q 1778 1272 847 497
Q 1106 469 1375 469
Q 1728 469 2188 541
Q 2850 644 2850 828
z
" transform="scale(0.015625)"/>
     </defs>
     <use xlink:href="#BNazanin-64"/>
     <use xlink:href="#BNazanin-8c" transform="translate(73.78125 0)"/>
     <use xlink:href="#BNazanin-b3" transform="translate(131.40625 0)"/>
     <use xlink:href="#BNazanin-81" transform="translate(168.765625 0)"/>
     <use xlink:href="#BNazanin-5a" transform="translate(200.359375 0)"/>
     <use xlink:href="#BNazanin-5d" transform="translate(223.796875 0)"/>
     <use xlink:href="#BNazanin-3" transform="translate(240.0625 0)"/>
     <use xlink:href="#BNazanin-c1" transform="translate(264.484375 0)"/>
     <use xlink:href="#BNazanin-3" transform="translate(296.65625 0)"/>
     <use xlink:href="#BNazanin-ca" transform="translate(321.078125 0)"/>
     <use xlink:href="#BNazanin-ac" transform="translate(383.4375 0)"/>
     <use xlink:href="#BNazanin-cc" transform="translate(417.234375 0)"/>
     <use xlink:href="#BNazanin-5e" transform="translate(448 0)"/>
     <use xlink:href="#BNazanin-98" transform="translate(478.765625 0)"/>
     <use xlink:href="#BNazanin-65" transform="translate(531.640625 0)"/>
    </g>
   </g>
   <g id="text_15">
    <g id="patch_19">
     <path d="M 385.8201 117.658734
C 387.340778 117.658734 388.799378 117.054562 389.87466 115.97928
C 390.949942 114.903998 391.554114 113.445398 391.554114 111.92472
C 391.554114 110.404042 390.949942 108.945442 389.87466 107.87016
C 388.799378 106.794878 387.340778 106.190706 385.8201 106.190706
C 384.299422 106.190706 382.840822 106.794878 381.76554 107.87016
C 380.690258 108.945442 380.086086 110.404042 380.086086 111.92472
C 380.086086 113.445398 380.690258 114.903998 381.76554 115.97928
C 382.840822 117.054562 384.299422 117.658734 385.8201 117.658734
z
" style="fill: #17365d"/>
    </g>
    <!-- 5 -->
    <g style="fill: #ffffff" transform="translate(383.6951 113.954261) scale(0.085 -0.085)">
     <defs>
      <path id="TimesNewRomanPSMT-18" d="M 2778 4238
L 2534 3706
L 1259 3706
L 981 3138
Q 1809 3016 2294 2522
Q 2709 2097 2709 1522
Q 2709 1188 2573 903
Q 2438 619 2231 419
Q 2025 219 1772 97
Q 1413 -75 1034 -75
Q 653 -75 479 54
Q 306 184 306 341
Q 306 428 378 495
Q 450 563 559 563
Q 641 563 702 538
Q 763 513 909 409
Q 1144 247 1384 247
Q 1750 247 2026 523
Q 2303 800 2303 1197
Q 2303 1581 2056 1914
Q 1809 2247 1375 2428
Q 1034 2569 447 2591
L 1259 4238
L 2778 4238
z
" transform="scale(0.015625)"/>
     </defs>
     <use xlink:href="#TimesNewRomanPSMT-18"/>
    </g>
   </g>
   <g id="text_16">
    <!-- انتخاب مقید -->
    <g transform="translate(186.143875 138.758711) scale(0.125 -0.125)">
     <defs>
      <path id="BNazanin-5b" d="M 4331 900
Q 4331 456 4034 269
Q 3834 144 3313 50
Q 2738 -53 2069 -53
Q 484 -53 484 816
Q 484 1106 706 1425
Q 750 1488 794 1488
Q 838 1488 838 1431
Q 838 1403 822 1366
Q 734 1166 734 1006
Q 734 416 2244 416
Q 2978 416 3500 503
Q 4078 600 4078 766
Q 4078 866 3803 1234
L 4000 1613
Q 4034 1678 4075 1613
Q 4331 1206 4331 900
z
M 2753 -906
L 2428 -1231
L 2100 -903
L 2425 -578
L 2753 -906
z
" transform="scale(0.015625)"/>
      <path id="BNazanin-7a" d="M 3606 3
L 3200 3
Q 2413 3 2413 784
Q 2413 875 2422 991
Q 2150 859 1666 559
Q 1209 275 969 172
Q 581 3 203 3
L -81 3
L -81 466
L 219 466
Q 719 466 1209 716
Q 1453 844 2088 1172
Q 1950 1200 1388 1347
Q 978 1453 897 1453
Q 681 1453 425 1234
Q 378 1194 341 1194
Q 300 1194 300 1247
Q 300 1269 313 1306
Q 513 1900 984 1900
Q 1163 1900 1447 1803
Q 1881 1656 2169 1591
Q 2559 1503 3134 1516
Q 3225 1519 3238 1503
Q 3250 1488 3222 1416
L 3088 1069
Q 2713 1072 2622 1025
Q 2622 756 2684 656
Q 2803 466 3216 466
L 3606 466
L 3606 3
z
M 2069 2988
L 1744 2663
L 1419 2991
L 1744 3316
L 2069 2988
z
" transform="scale(0.015625)"/>
     </defs>
     <use xlink:href="#BNazanin-7c"/>
     <use xlink:href="#BNazanin-cc" transform="translate(47.40625 0)"/>
     <use xlink:href="#BNazanin-ac" transform="translate(78.171875 0)"/>
     <use xlink:href="#BNazanin-bb" transform="translate(111.96875 0)"/>
     <use xlink:href="#BNazanin-3" transform="translate(144.296875 0)"/>
     <use xlink:href="#BNazanin-5b" transform="translate(168.71875 0)"/>
     <use xlink:href="#BNazanin-5a" transform="translate(236.4375 0)"/>
     <use xlink:href="#BNazanin-7a" transform="translate(259.875 0)"/>
     <use xlink:href="#BNazanin-66" transform="translate(314.515625 0)"/>
     <use xlink:href="#BNazanin-bf" transform="translate(345.28125 0)"/>
     <use xlink:href="#BNazanin-59" transform="translate(361.546875 0)"/>
    </g>
   </g>
   <g id="text_17">
    <!-- کنترل فراموشی، نگهداشت -->
    <g transform="translate(165.418875 171.573937) scale(0.11 -0.11)">
     <defs>
      <path id="BNazanin-2c" d="M 1297 322
Q 1297 219 1209 119
Q 1097 -9 916 -9
Q 709 -9 594 144
Q 488 284 488 497
Q 488 1022 925 1256
Q 984 1288 1069 1291
Q 1156 1294 1156 1256
Q 1144 1238 1063 1166
Q 800 934 800 613
Q 903 644 991 644
Q 1297 644 1297 322
z
" transform="scale(0.015625)"/>
     </defs>
     <use xlink:href="#BNazanin-64"/>
     <use xlink:href="#BNazanin-8b" transform="translate(73.78125 0)"/>
     <use xlink:href="#BNazanin-59" transform="translate(124.609375 0)"/>
     <use xlink:href="#BNazanin-7c" transform="translate(139.3125 0)"/>
     <use xlink:href="#BNazanin-c6" transform="translate(186.71875 0)"/>
     <use xlink:href="#BNazanin-b4" transform="translate(225.53125 0)"/>
     <use xlink:href="#BNazanin-bf" transform="translate(267.8125 0)"/>
     <use xlink:href="#BNazanin-3" transform="translate(284.078125 0)"/>
     <use xlink:href="#BNazanin-2c" transform="translate(308.5 0)"/>
     <use xlink:href="#BNazanin-ca" transform="translate(328.90625 0)"/>
     <use xlink:href="#BNazanin-8b" transform="translate(391.265625 0)"/>
     <use xlink:href="#BNazanin-c2" transform="translate(442.09375 0)"/>
     <use xlink:href="#BNazanin-bb" transform="translate(479.59375 0)"/>
     <use xlink:href="#BNazanin-59" transform="translate(511.921875 0)"/>
     <use xlink:href="#BNazanin-80" transform="translate(526.625 0)"/>
     <use xlink:href="#BNazanin-a7" transform="translate(564.21875 0)"/>
     <use xlink:href="#BNazanin-3" transform="translate(589.65625 0)"/>
     <use xlink:href="#BNazanin-b5" transform="translate(614.078125 0)"/>
     <use xlink:href="#BNazanin-80" transform="translate(667.890625 0)"/>
     <use xlink:href="#BNazanin-66" transform="translate(705.484375 0)"/>
     <use xlink:href="#BNazanin-c0" transform="translate(736.25 0)"/>
     <use xlink:href="#BNazanin-af" transform="translate(767.015625 0)"/>
    </g>
    <!-- و توانایی عمومی -->
    <g transform="translate(182.707781 193.55401) scale(0.11 -0.11)">
     <defs>
      <path id="BNazanin-bc" d="M 2947 3
L 2688 3
Q 2406 3 2109 334
Q 1944 -159 1734 -159
Q 1541 -159 1194 38
Q 884 213 759 353
Q 478 3 163 3
L -81 3
L -81 466
L 175 466
Q 450 466 706 697
Q 866 878 1094 1125
Q 1306 1356 1491 1356
Q 1719 1356 1906 1125
Q 2000 1006 2247 697
Q 2438 466 2688 466
L 2947 466
L 2947 3
z
M 1869 334
Q 1888 516 1766 725
Q 1628 963 1425 963
Q 1219 963 981 656
Q 1047 572 1322 428
Q 1619 272 1800 266
Q 1863 263 1869 334
z
" transform="scale(0.015625)"/>
     </defs>
     <use xlink:href="#BNazanin-ca"/>
     <use xlink:href="#BNazanin-bb" transform="translate(62.359375 0)"/>
     <use xlink:href="#BNazanin-c2" transform="translate(94.6875 0)"/>
     <use xlink:href="#BNazanin-bc" transform="translate(132.1875 0)"/>
     <use xlink:href="#BNazanin-9f" transform="translate(176.921875 0)"/>
     <use xlink:href="#BNazanin-3" transform="translate(211.390625 0)"/>
     <use xlink:href="#BNazanin-ca" transform="translate(235.8125 0)"/>
     <use xlink:href="#BNazanin-cb" transform="translate(298.171875 0)"/>
     <use xlink:href="#BNazanin-5a" transform="translate(320.390625 0)"/>
     <use xlink:href="#BNazanin-bf" transform="translate(343.828125 0)"/>
     <use xlink:href="#BNazanin-59" transform="translate(360.09375 0)"/>
     <use xlink:href="#BNazanin-c2" transform="translate(374.796875 0)"/>
     <use xlink:href="#BNazanin-65" transform="translate(412.296875 0)"/>
     <use xlink:href="#BNazanin-3" transform="translate(433.4375 0)"/>
     <use xlink:href="#BNazanin-c1" transform="translate(457.859375 0)"/>
    </g>
   </g>
   <g id="text_18">
    <g id="patch_20">
     <path d="M 256.15485 117.658734
C 257.675528 117.658734 259.134128 117.054562 260.20941 115.97928
C 261.284692 114.903998 261.888864 113.445398 261.888864 111.92472
C 261.888864 110.404042 261.284692 108.945442 260.20941 107.87016
C 259.134128 106.794878 257.675528 106.190706 256.15485 106.190706
C 254.634172 106.190706 253.175572 106.794878 252.10029 107.87016
C 251.025008 108.945442 250.420836 110.404042 250.420836 111.92472
C 250.420836 113.445398 251.025008 114.903998 252.10029 115.97928
C 253.175572 117.054562 254.634172 117.658734 256.15485 117.658734
z
" style="fill: #17365d"/>
    </g>
    <!-- 6 -->
    <g style="fill: #ffffff" transform="translate(254.02985 113.954261) scale(0.085 -0.085)">
     <defs>
      <path id="TimesNewRomanPSMT-19" d="M 2869 4325
L 2869 4209
Q 2456 4169 2195 4045
Q 1934 3922 1679 3669
Q 1425 3416 1258 3105
Q 1091 2794 978 2366
Q 1428 2675 1881 2675
Q 2316 2675 2634 2325
Q 2953 1975 2953 1425
Q 2953 894 2631 456
Q 2244 -75 1606 -75
Q 1172 -75 869 213
Q 275 772 275 1663
Q 275 2231 503 2743
Q 731 3256 1154 3653
Q 1578 4050 1965 4187
Q 2353 4325 2688 4325
L 2869 4325
z
M 925 2138
Q 869 1716 869 1456
Q 869 1156 980 804
Q 1091 453 1309 247
Q 1469 100 1697 100
Q 1969 100 2183 356
Q 2397 613 2397 1088
Q 2397 1622 2184 2012
Q 1972 2403 1581 2403
Q 1463 2403 1327 2353
Q 1191 2303 925 2138
z
" transform="scale(0.015625)"/>
     </defs>
     <use xlink:href="#TimesNewRomanPSMT-19"/>
    </g>
   </g>
   <g id="text_19">
    <!-- ارزیابی کامل -->
    <g transform="translate(56.263781 138.758711) scale(0.125 -0.125)">
     <defs>
      <path id="BNazanin-b6" d="M 3919 3
L 3728 3
Q 3419 3 3294 181
Q 3278 -181 3197 -709
Q 3028 -1144 2566 -1369
Q 2166 -1566 1653 -1566
Q 1141 -1566 834 -1347
Q 484 -1097 484 -603
Q 484 -103 759 284
Q 794 331 831 331
Q 881 331 881 272
Q 881 247 869 216
Q 738 -113 738 -334
Q 738 -713 1016 -919
Q 1263 -1103 1653 -1103
Q 2041 -1103 2469 -963
Q 3041 -775 3031 -466
L 2981 1453
Q 2947 2813 2891 3463
L 3209 3741
Q 3228 3566 3272 2400
L 3331 853
Q 3347 466 3816 466
L 3919 466
L 3919 3
z
" transform="scale(0.015625)"/>
     </defs>
     <use xlink:href="#BNazanin-b6"/>
     <use xlink:href="#BNazanin-bb" transform="translate(59.96875 0)"/>
     <use xlink:href="#BNazanin-5a" transform="translate(92.296875 0)"/>
     <use xlink:href="#BNazanin-af" transform="translate(115.734375 0)"/>
     <use xlink:href="#BNazanin-3" transform="translate(153.09375 0)"/>
     <use xlink:href="#BNazanin-ca" transform="translate(177.515625 0)"/>
     <use xlink:href="#BNazanin-5d" transform="translate(239.875 0)"/>
     <use xlink:href="#BNazanin-5a" transform="translate(256.140625 0)"/>
     <use xlink:href="#BNazanin-cb" transform="translate(279.578125 0)"/>
     <use xlink:href="#BNazanin-81" transform="translate(301.796875 0)"/>
     <use xlink:href="#BNazanin-7f" transform="translate(333.390625 0)"/>
     <use xlink:href="#BNazanin-59" transform="translate(364.984375 0)"/>
    </g>
   </g>
   <g id="text_20">
    <!-- 1500 پرسش مصنوعی -->
    <g transform="translate(41.565578 171.361671) scale(0.11 -0.11)">
     <defs>
      <path id="BNazanin-8a" d="M 6116 3
L 5897 3
Q 5494 3 5328 331
Q 5184 -13 4797 -13
Q 4434 -13 4291 344
Q 4094 -16 3725 -16
Q 3588 -16 3428 34
Q 3416 -325 3384 -728
Q 3225 -1175 2697 -1419
Q 2244 -1628 1716 -1628
Q 1191 -1628 853 -1369
Q 484 -1081 484 -569
Q 484 -297 619 13
Q 716 234 819 359
Q 869 419 909 419
Q 947 419 947 375
Q 947 347 928 309
Q 750 -56 750 -359
Q 750 -656 947 -872
Q 1206 -1156 1731 -1156
Q 2325 -1156 2766 -944
Q 3128 -769 3222 -563
Q 3253 -494 3231 -297
Q 3209 -97 3172 0
Q 3100 188 2784 594
L 2959 925
Q 2997 997 3016 997
Q 3031 997 3072 938
Q 3238 688 3300 628
Q 3469 463 3706 463
Q 3972 463 4091 606
Q 4169 700 4216 947
Q 4238 1059 4288 1059
Q 4338 1059 4350 959
Q 4416 456 4784 456
Q 5228 456 5278 931
Q 5291 1050 5341 1050
Q 5397 1050 5413 934
Q 5475 466 5884 466
L 6116 466
L 6116 3
z
M 4575 2638
L 4284 2344
L 3988 2641
L 4281 2931
L 4575 2638
z
M 4934 2013
L 4641 1722
L 4347 2016
L 4638 2306
L 4934 2013
z
M 4222 2013
L 3931 1722
L 3634 2016
L 3928 2306
L 4222 2013
z
" transform="scale(0.015625)"/>
     </defs>
     <use xlink:href="#BNazanin-ca"/>
     <use xlink:href="#BNazanin-9f" transform="translate(62.359375 0)"/>
     <use xlink:href="#BNazanin-c2" transform="translate(96.828125 0)"/>
     <use xlink:href="#BNazanin-c0" transform="translate(134.328125 0)"/>
     <use xlink:href="#BNazanin-90" transform="translate(165.09375 0)"/>
     <use xlink:href="#BNazanin-bb" transform="translate(224.859375 0)"/>
     <use xlink:href="#BNazanin-3" transform="translate(257.1875 0)"/>
     <use xlink:href="#BNazanin-8a" transform="translate(281.609375 0)"/>
     <use xlink:href="#BNazanin-87" transform="translate(375.890625 0)"/>
     <use xlink:href="#BNazanin-80" transform="translate(426.71875 0)"/>
     <use xlink:href="#BNazanin-61" transform="translate(464.3125 0)"/>
     <use xlink:href="#BNazanin-3" transform="translate(486.78125 0)"/>
     <use xlink:href="#BNazanin-f" transform="translate(511.203125 0)"/>
     <use xlink:href="#BNazanin-13" transform="translate(558.078125 0)"/>
     <use xlink:href="#BNazanin-e" transform="translate(604.953125 0)"/>
     <use xlink:href="#BNazanin-e" transform="translate(651.828125 0)"/>
    </g>
    <!-- و 50 پرسش کنترل عمومی -->
    <g transform="translate(34.318469 193.460338) scale(0.11 -0.11)">
     <use xlink:href="#BNazanin-ca"/>
     <use xlink:href="#BNazanin-bb" transform="translate(62.359375 0)"/>
     <use xlink:href="#BNazanin-c2" transform="translate(94.6875 0)"/>
     <use xlink:href="#BNazanin-bc" transform="translate(132.1875 0)"/>
     <use xlink:href="#BNazanin-9f" transform="translate(176.921875 0)"/>
     <use xlink:href="#BNazanin-3" transform="translate(211.390625 0)"/>
     <use xlink:href="#BNazanin-b5" transform="translate(235.8125 0)"/>
     <use xlink:href="#BNazanin-80" transform="translate(289.625 0)"/>
     <use xlink:href="#BNazanin-66" transform="translate(327.21875 0)"/>
     <use xlink:href="#BNazanin-c0" transform="translate(357.984375 0)"/>
     <use xlink:href="#BNazanin-af" transform="translate(388.75 0)"/>
     <use xlink:href="#BNazanin-3" transform="translate(426.109375 0)"/>
     <use xlink:href="#BNazanin-8a" transform="translate(450.53125 0)"/>
     <use xlink:href="#BNazanin-87" transform="translate(544.8125 0)"/>
     <use xlink:href="#BNazanin-80" transform="translate(595.640625 0)"/>
     <use xlink:href="#BNazanin-61" transform="translate(633.234375 0)"/>
     <use xlink:href="#BNazanin-3" transform="translate(655.703125 0)"/>
     <use xlink:href="#BNazanin-13" transform="translate(680.125 0)"/>
     <use xlink:href="#BNazanin-e" transform="translate(727 0)"/>
     <use xlink:href="#BNazanin-3" transform="translate(773.875 0)"/>
     <use xlink:href="#BNazanin-c1" transform="translate(798.296875 0)"/>
    </g>
   </g>
   <g id="text_21">
    <g id="patch_21">
     <path d="M 126.4896 117.658734
C 128.010278 117.658734 129.468878 117.054562 130.54416 115.97928
C 131.619442 114.903998 132.223614 113.445398 132.223614 111.92472
C 132.223614 110.404042 131.619442 108.945442 130.54416 107.87016
C 129.468878 106.794878 128.010278 106.190706 126.4896 106.190706
C 124.968922 106.190706 123.510322 106.794878 122.43504 107.87016
C 121.359758 108.945442 120.755586 110.404042 120.755586 111.92472
C 120.755586 113.445398 121.359758 114.903998 122.43504 115.97928
C 123.510322 117.054562 124.968922 117.658734 126.4896 117.658734
z
" style="fill: #17365d"/>
    </g>
    <!-- 7 -->
    <g style="fill: #ffffff" transform="translate(124.3646 113.954261) scale(0.085 -0.085)">
     <defs>
      <path id="TimesNewRomanPSMT-1a" d="M 644 4238
L 2916 4238
L 2916 4119
L 1503 -88
L 1153 -88
L 2419 3728
L 1253 3728
Q 900 3728 750 3644
Q 488 3500 328 3200
L 238 3234
L 644 4238
z
" transform="scale(0.015625)"/>
     </defs>
     <use xlink:href="#TimesNewRomanPSMT-1a"/>
    </g>
   </g>
   <g id="text_22">
    <!-- فرایند اجرای آزمایش‌های پادیادگیری -->
    <g transform="translate(367.430625 54.705472) scale(0.18 -0.18)">
     <defs>
      <path id="BNazanin-6d" d="M 3203 1166
L 3028 853
Q 2581 859 2403 794
Q 2163 703 1678 463
Q 1209 228 953 138
Q 575 3 203 3
L -81 3
L -81 466
L 219 466
Q 775 466 1197 650
L 2128 1056
Q 1906 1106 1419 1288
Q 1016 1438 897 1438
Q 666 1438 425 1234
Q 378 1194 341 1194
Q 300 1194 300 1247
Q 300 1269 313 1306
Q 509 1884 984 1884
Q 1153 1884 1444 1753
Q 1931 1534 2169 1453
Q 2578 1316 3144 1278
Q 3244 1272 3244 1253
Q 3244 1238 3203 1166
z
M 1884 -813
L 1559 -1138
L 1231 -809
L 1556 -484
L 1884 -813
z
" transform="scale(0.015625)"/>
     </defs>
     <use xlink:href="#BNazanin-c9"/>
     <use xlink:href="#BNazanin-80" transform="translate(64.75 0)"/>
     <use xlink:href="#BNazanin-cc" transform="translate(102.34375 0)"/>
     <use xlink:href="#BNazanin-b3" transform="translate(133.109375 0)"/>
     <use xlink:href="#BNazanin-7b" transform="translate(170.46875 0)"/>
     <use xlink:href="#BNazanin-5a" transform="translate(208.65625 0)"/>
     <use xlink:href="#BNazanin-cb" transform="translate(232.09375 0)"/>
     <use xlink:href="#BNazanin-7b" transform="translate(254.3125 0)"/>
     <use xlink:href="#BNazanin-5a" transform="translate(292.5 0)"/>
     <use xlink:href="#BNazanin-61" transform="translate(315.9375 0)"/>
     <use xlink:href="#BNazanin-3" transform="translate(338.40625 0)"/>
     <use xlink:href="#BNazanin-c9" transform="translate(362.828125 0)"/>
     <use xlink:href="#BNazanin-5a" transform="translate(427.578125 0)"/>
     <use xlink:href="#BNazanin-c5" transform="translate(451.015625 0)"/>
     <use xlink:href="#BNazanin-3" transform="translate(490.46875 0)"/>
     <use xlink:href="#BNazanin-8a" transform="translate(490.46875 0)"/>
     <use xlink:href="#BNazanin-cb" transform="translate(584.75 0)"/>
     <use xlink:href="#BNazanin-5a" transform="translate(606.96875 0)"/>
     <use xlink:href="#BNazanin-bb" transform="translate(630.40625 0)"/>
     <use xlink:href="#BNazanin-81" transform="translate(662.734375 0)"/>
     <use xlink:href="#BNazanin-4d" transform="translate(694.328125 0)"/>
     <use xlink:href="#BNazanin-3" transform="translate(719.03125 0)"/>
     <use xlink:href="#BNazanin-c9" transform="translate(743.453125 0)"/>
     <use xlink:href="#BNazanin-59" transform="translate(808.203125 0)"/>
     <use xlink:href="#BNazanin-80" transform="translate(822.90625 0)"/>
     <use xlink:href="#BNazanin-6d" transform="translate(860.5 0)"/>
     <use xlink:href="#BNazanin-59" transform="translate(911.1875 0)"/>
     <use xlink:href="#BNazanin-3" transform="translate(925.890625 0)"/>
     <use xlink:href="#BNazanin-7c" transform="translate(950.3125 0)"/>
     <use xlink:href="#BNazanin-c0" transform="translate(997.71875 0)"/>
     <use xlink:href="#BNazanin-cb" transform="translate(1028.484375 0)"/>
     <use xlink:href="#BNazanin-59" transform="translate(1050.703125 0)"/>
     <use xlink:href="#BNazanin-80" transform="translate(1065.40625 0)"/>
     <use xlink:href="#BNazanin-a7" transform="translate(1103 0)"/>
    </g>
   </g>
  </g>
 </g>
 <defs>
  <clipPath id="p0ad3cd7344">
   <rect x="8.64" y="8.64" width="920.7" height="299.376"/>
  </clipPath>
 </defs>
</svg>
